<?xml version="1.0" standalone="no"?>
<!DOCTYPE svg PUBLIC "-//W3C//DTD SVG 1.1//EN" "http://www.w3.org/Graphics/SVG/1.1/DTD/svg11.dtd">
<svg xmlns="http://www.w3.org/2000/svg">
<defs >
<font id="IBMPlexSerif" horiz-adv-x="582" ><font-face
    font-family="IBM Plex Serif Medium"
    units-per-em="1000"
    panose-1="2 6 6 3 5 4 6 0 2 3"
    ascent="1025"
    descent="-275"
    alphabetic="0" />
<glyph unicode=" " glyph-name="space" horiz-adv-x="212" />
<glyph unicode="!" glyph-name="exclam" horiz-adv-x="267" d="M76 -12Q45 -12 28 6T11 47Q11 52 11 58T14 72Q22 101 43 117T95 134Q126 134 143 116T160 75Q160 70 160 64T157 50Q149 21 128 5T76 -12ZM139 511L186 698H300L253 511L141 198H95L139 511Z" />
<glyph unicode="&quot;" glyph-name="quotedbl" horiz-adv-x="411" d="M164 648L189 748H279L254 648L177 451H143L164 648ZM353 648L378 748H468L443 648L366 451H332L353 648Z" />
<glyph unicode="#" glyph-name="numbersign" horiz-adv-x="609" d="M126 203H19L34 260H149L221 438H115L129 495H244L326 698H394L312 495H457L539 698H607L525 495H632L617 438H502L430 260H536L522 203H407L325 0H257L339 203H194L112 0H44L126 203ZM217 260H362L434
438H289L217 260Z" />
<glyph unicode="$" glyph-name="dollar" horiz-adv-x="548" d="M182 -3Q147 -1 118 7T66 29T32 65T20 113Q20 129 25 144T39 172T63 191T94 198Q121 198 135 182T150 143Q150 118 135 97T88 70V63Q107 55 131 50T195 44L263 315L252 319Q184 345 152 383T119 486Q119
530 136 568T184 635T259 681T358 701L378 780H429L409 700Q439 697 465 689T511 666T542 632T554 586Q554 553 535 527T480 500Q454 500 439 516T424 555Q424 581 439 601T486 629V635Q467 643 447 647T397 654L333 404L353 397Q425 371 456 333T488 235Q488 188
470 146T419 72T339 20T234 -3L214 -82H163L182 -3ZM245 47Q277 52 304 66T352 100T383 146T394 200Q394 238 372 259T307 298L245 47ZM347 651Q313 647 288 635T245 604T219 564T210 520Q210 485 229 462T289 420L347 651Z" />
<glyph unicode="%" glyph-name="percent" horiz-adv-x="846" d="M230 357Q297 357 325 469Q337 517 346 553T355 610Q355 640 342 653T308 667Q241 667 213 555Q201 507 192 471T183 414Q183 384 196 371T230 357ZM584 31Q651 31 679 143Q691 191 700 227T709
284Q709 314 696 327T662 341Q595 341 567 229Q555 181 546 145T537 88Q537 58 550 45T584 31ZM224 314Q171 314 137 342T103 438Q103 473 114 520T149 609T214 680T314 710Q367 710 401 682T435 586Q435 551 424 504T389 415T324 344T224 314ZM578 -12Q525 -12
491 16T457 112Q457 147 468 194T503 283T568 354T668 384Q721 384 755 356T789 260Q789 225 778 178T743 89T678 18T578 -12ZM719 698H785L170 0H104L719 698Z" />
<glyph unicode="&amp;" glyph-name="ampersand" horiz-adv-x="671" d="M212 -12Q117 -12 64 25T11 137Q11 183 27 219T71 283T138 334T222 378L213 395Q195 430 186 455T176 511Q176 556 194 593T243 656T315 696T401 710Q478 710 515 681T553 597Q553 558 533
527T482 469T411 421T334 381L449 173Q474 205 495 245T529 331H466L478 380H664L652 331H588Q569 269 541 217T477 122L495 90Q508 67 531 58T594 49L582 0H497Q463 0 442 12T403 52Q318 -12 212 -12ZM313 420Q369 450 403 483T448 556Q450 565 452 577T455 599Q455
628 439 644T395 660Q354 660 326 634T287 567Q285 557 283 547T281 526Q281 499 288 474T313 420ZM237 44Q275 44 310 58T377 95L245 336Q198 307 173 273T138 194Q135 183 132 166T128 137Q128 89 158 67T237 44Z" />
<glyph unicode="&apos;" glyph-name="quotesingle" horiz-adv-x="222" d="M164 648L189 748H279L254 648L177 451H143L164 648Z" />
<glyph unicode="(" glyph-name="parenleft" horiz-adv-x="309" d="M180 -155Q151 -133 126 -101T81 -28T51 64T40 175Q40 217 46 259T65 347Q86 418 122 483T204 604T303 704T410 779L432 741Q388 711 349 669T277 574T219 463T179 341L160 265Q140 187 140 111Q140
46 157 -17T215 -123L180 -155V-155Z" />
<glyph unicode=")" glyph-name="parenright" horiz-adv-x="309" d="M-98 -117Q-54 -87 -15 -45T57 50T115 161T155 283L174 359Q194 437 194 513Q194 578 177 641T119 747L154 779Q183 757 208 725T253 652T283 560T294 449Q294 407 288 365T269 277Q248 206 212
141T130 20T31 -80T-76 -155L-98 -117Z" />
<glyph unicode="*" glyph-name="asterisk" horiz-adv-x="475" d="M122 419L164 462L267 529L291 510L228 410L186 367L122 419ZM157 558L109 574L155 650L201 634L281 576L267 551L157 558ZM330 410L313 511L341 526L412 455L432 412L351 367L330 410ZM301 694L314
747H404L391 694L337 591H304L301 694ZM352 577L455 635L510 651L519 569L465 553L355 548L352 577Z" />
<glyph unicode="+" glyph-name="plus" horiz-adv-x="550" d="M244 275H65L80 335H260L310 534H378L328 335H508L493 275H312L262 76H194L244 275Z" />
<glyph unicode="," glyph-name="comma" horiz-adv-x="260" d="M-57 -140Q-18 -110 12 -77T61 -11Q37 -8 23 8T8 48Q8 63 13 78Q21 104 42 119T93 134Q124 134 140 116T157 71Q157 57 153 42Q146 16 131 -9T95 -59T51 -103T5 -140H-57V-140Z" />
<glyph unicode="-" glyph-name="hyphen" horiz-adv-x="363" d="M74 343H331L312 267H55L74 343Z" />
<glyph unicode="." glyph-name="period" horiz-adv-x="260" d="M73 -12Q42 -12 25 6T8 47Q8 52 8 58T11 72Q19 101 40 117T92 134Q123 134 140 116T157 75Q157 70 157 64T154 50Q146 21 125 5T73 -12Z" />
<glyph unicode="/" glyph-name="slash" horiz-adv-x="376" d="M383 748H462L-14 -143H-93L383 748Z" />
<glyph unicode="0" glyph-name="zero" horiz-adv-x="550" d="M217 41Q252 41 278 57T325 105T361 180T391 282Q406 342 417 386T435 463T447 520T451 565Q451 607 434 632T375 657Q340 657 314 641T267 593T231 518T201 416Q186 356 175 312T156 235T145 178T141
133Q141 91 158 66T217 41ZM213 -12Q129 -12 85 37T40 189Q40 220 46 270T68 379T109 496T173 602T261 680T379 710Q463 710 507 661T552 509Q552 478 546 428T524 319T483 202T419 96T330 18T213 -12Z" />
<glyph unicode="1" glyph-name="one" horiz-adv-x="550" d="M41 49H189L330 615L157 545L149 592L373 698H465L303 49H445L433 0H29L41 49Z" />
<glyph unicode="2" glyph-name="two" horiz-adv-x="550" d="M0 75L248 296Q305 346 343 396T398 511Q400 520 405 539T410 575Q410 613 388 636T323 659Q291 659 268 653T227 638L225 631Q242 626 252 614T262 582Q262 570 258 557T244 534T221 517T189 510Q163
510 147 525T131 568Q131 595 148 621T195 666T264 698T348 710Q441 710 484 671T527 568Q527 514 507 469T454 386T381 314T299 249L94 92L91 84H378L404 186H462L415 0H-19L0 75Z" />
<glyph unicode="3" glyph-name="three" horiz-adv-x="550" d="M186 -12Q140 -12 107 -2T53 26T22 64T12 106Q12 146 35 167T87 189Q117 189 131 173T145 135Q145 119 139 107T123 88T102 76T81 70L78 62Q95 49 118 44T169 39Q308 39 341 172Q342 177 344 186T349
206T353 228T355 248Q355 297 323 317T244 337H180L195 392H253Q323 392 363 426T415 511Q418 523 423 544T428 582Q428 619 405 639T336 659Q308 659 283 655T240 641L237 633Q273 622 273 584Q273 558 254 535T201 512Q175 512 159 526T143 569Q143 596 160 621T206
666T276 698T362 710Q454 710 500 675T546 576Q546 529 529 495T483 435T419 395T347 372L345 365Q404 354 438 320T473 232Q473 188 455 145T400 66T311 10T186 -12Z" />
<glyph unicode="4" glyph-name="four" horiz-adv-x="550" d="M280 147H2L19 215L407 698H526L406 220H498L480 147H389L352 0H243L280 147ZM86 220H298L394 602H388L86 220Z" />
<glyph unicode="5" glyph-name="five" horiz-adv-x="550" d="M197 -12Q150 -12 118 -2T65 26T35 64T26 106Q26 146 49 167T102 189Q131 189 145 173T159 135Q159 119 153 108T138 88T117 76T95 70L92 62Q108 49 130 44T180 39Q246 39 289 79T352 196Q354 205 359
227T365 272Q365 323 338 344T273 365Q234 365 202 346T150 301L96 313L215 698H567L544 608H239L157 342H166Q190 378 229 404T328 430Q358 430 386 422T436 397T471 351T484 282Q484 220 462 167T401 73T310 11T197 -12Z" />
<glyph unicode="6" glyph-name="six" horiz-adv-x="550" d="M213 -12Q132 -12 85 31T38 166Q38 219 52 277T93 391T161 500T256 594T378 667T527 710L530 665Q468 651 414 621T316 548T239 453T188 342L195 340Q205 358 220 375T256 406T303 428T360 437Q422 437
460 401T498 291Q498 220 474 164T410 69T319 9T213 -12ZM219 41Q249 41 272 53T313 86T343 136T364 199Q365 203 367 213T373 236T378 263T380 290Q380 328 362 351T304 375Q274 375 251 363T210 330T180 280T159 217Q158 213 156 203T150 180T145 153T143 126Q143
88 161 65T219 41Z" />
<glyph unicode="7" glyph-name="seven" horiz-adv-x="550" d="M499 608H202L169 479H111L166 698H598L580 626L200 0H88L499 608Z" />
<glyph unicode="8" glyph-name="eight" horiz-adv-x="550" d="M214 -12Q117 -12 69 30T20 142Q20 189 37 227T83 293T149 338T225 361L227 368Q186 378 157 411T127 499Q127 542 145 580T196 647T275 693T378 710Q472 710 515 672T558 571Q558 529 541 493T498
431T439 388T375 368L373 360Q426 349 458 316T490 227Q490 185 473 143T421 66T335 10T214 -12ZM223 39Q282 39 316 79T366 182Q367 186 369 195T373 215T377 237T379 258Q379 297 357 319T290 341Q231 341 197 301T147 198Q146 193 144 185T140 165T136 143T134
122Q134 83 156 61T223 39ZM309 391Q336 391 356 401T392 429T417 471T434 523Q440 547 443 560T446 588Q446 624 426 642T371 661Q344 661 323 651T287 623T262 581T246 529Q240 505 237 492T234 464Q234 428 254 410T309 391Z" />
<glyph unicode="9" glyph-name="nine" horiz-adv-x="550" d="M64 33Q125 46 179 76T278 150T355 245T406 356L399 358Q388 340 373 323T338 292T291 270T234 261Q172 261 134 297T96 407Q96 477 120 533T183 629T274 689T381 710Q462 710 509 667T556 532Q556
479 542 421T501 307T433 198T338 104T216 31T67 -12L64 33ZM290 323Q320 323 343 335T384 368T414 418T435 481Q436 485 438 495T444 518T449 545T451 572Q451 610 433 633T375 657Q345 657 322 645T281 612T251 562T230 499Q229 495 227 485T221 462T216 435T214
408Q214 370 232 347T290 323Z" />
<glyph unicode=":" glyph-name="colon" horiz-adv-x="275" d="M80 -12Q49 -12 32 6T15 47Q15 52 15 58T18 72Q26 101 47 117T99 134Q130 134 147 116T164 75Q164 70 164 64T161 50Q153 21 132 5T80 -12ZM179 386Q148 386 131 404T114 445Q114 450 114 456T117
470Q125 499 146 515T198 532Q229 532 246 514T263 473Q263 468 263 462T260 448Q252 419 231 403T179 386Z" />
<glyph unicode=";" glyph-name="semicolon" horiz-adv-x="275" d="M-50 -140Q-11 -110 19 -77T68 -11Q44 -8 30 8T15 48Q15 63 20 78Q28 104 49 119T100 134Q131 134 147 116T164 71Q164 57 160 42Q153 16 138 -9T102 -59T58 -103T12 -140H-50V-140ZM179 386Q148
386 131 404T114 445Q114 450 114 456T117 470Q125 499 146 515T198 532Q229 532 246 514T263 473Q263 468 263 462T260 448Q252 419 231 403T179 386Z" />
<glyph unicode="&lt;" glyph-name="less" horiz-adv-x="550" d="M80 233L97 301L521 545L501 467L165 265L163 256L399 53L383 -12L80 233Z" />
<glyph unicode="=" glyph-name="equal" horiz-adv-x="550" d="M52 229H481L466 169H37L52 229ZM105 442H534L519 381H90L105 442Z" />
<glyph unicode="&gt;" glyph-name="greater" horiz-adv-x="550" d="M54 66L390 268L392 277L156 480L172 545L475 300L458 232L34 -12L54 66Z" />
<glyph unicode="?" glyph-name="question" horiz-adv-x="452" d="M172 374Q247 378 297 413T365 518Q368 529 372 546T376 581Q376 619 353 639T290 659Q266 659 241 655T199 641L196 633Q233 623 233 583Q233 558 215 535T162 512Q134 512 118 527T102 569Q102
599 121 624T171 669T241 699T323 710Q369 710 401 700T454 672T484 629T494 575Q494 516 470 471T408 394T320 343T219 320L193 216H133L172 374ZM118 -12Q87 -12 70 6T53 47Q53 52 53 58T56 72Q64 101 85 117T137 134Q168 134 185 116T202 75Q202 70 202 64T199
50Q191 21 170 5T118 -12Z" />
<glyph unicode="@" glyph-name="at" horiz-adv-x="837" d="M350 -121Q290 -121 237 -104T144 -50T81 40T58 166Q58 229 71 293T112 418T178 532T268 624T381 687T518 710Q580 710 632 694T721 645T778 564T799 452Q799 383 782 315T734 192T661 103T567 69Q519
69 498 94T477 162Q477 173 478 186T484 216L477 218Q462 186 447 159T413 112T374 81T327 69Q283 69 264 101T245 190Q245 240 259 296T300 399T365 478T452 509Q487 509 509 492T542 435H548L589 500H631L554 185Q551 174 550 166T549 150Q549 113 582 113Q602
113 621 127T658 168T690 230T716 312Q727 355 732 386T737 453Q737 560 680 616T517 672Q446 672 387 645T280 570T198 458T145 318Q143 310 139 293T131 254T123 209T119 164Q119 105 137 60T188 -16T264 -62T359 -78H538L530 -110Q482 -115 439 -118T350 -121ZM360
132Q384 132 408 159T454 222T491 295T512 354L517 374Q526 410 517 432T473 455Q435 455 403 420T351 316Q347 303 344 286T337 251T332 217T330 188Q330 162 336 147T360 132Z" />
<glyph unicode="A" glyph-name="A" horiz-adv-x="649" d="M-42 49H8L382 698H486L536 49H586L574 0H339L351 49H424L413 225H178L80 49H153L141 0H-54L-42 49ZM205 277H411L393 606H386L205 277Z" />
<glyph unicode="B" glyph-name="B" horiz-adv-x="625" d="M-14 49H54L204 649H136L148 698H460Q545 698 586 664T627 564Q627 489 581 438T455 367L453 361Q504 348 537 314T570 223Q570 182 554 142T507 71T432 20T331 0H-26L-14 49ZM169 53H299Q352 53 390 84T442
172Q449 198 453 217T458 251Q458 288 437 310T372 333H240L169 53ZM253 386H366Q415 386 450 417T499 499Q505 522 509 541T514 574Q514 604 496 624T435 645H317L253 386Z" />
<glyph unicode="C" glyph-name="C" horiz-adv-x="597" d="M267 -12Q220 -12 181 2T114 46T70 120T54 226Q54 276 64 331T96 441T148 543T219 629T310 688T420 710Q477 710 510 689T552 636H561L576 698H662L609 486H523L535 536Q537 544 538 551T539 565Q539 607
510 629T432 652Q389 652 354 634T292 585T246 514T216 429Q202 375 194 339T180 278T172 234T170 198Q170 133 202 94T300 55Q368 55 417 92T502 187L540 163Q522 131 496 100T435 44T358 4T267 -12Z" />
<glyph unicode="D" glyph-name="D" horiz-adv-x="678" d="M-14 49H54L204 649H136L148 698H426Q541 698 602 634T663 460Q663 420 654 371T626 270T577 170T502 84T401 23T270 0H-26L-14 49ZM169 53H257Q351 53 415 115T507 287Q520 342 528 377T542 435T548 475T550
506Q550 573 514 609T406 645H317L169 53Z" />
<glyph unicode="E" glyph-name="E" horiz-adv-x="597" d="M-14 49H54L204 649H136L148 698H647L603 522H517L548 645H317L253 388H411L430 462H489L438 261H379L398 335H240L169 53H409L443 189H529L482 0H-26L-14 49Z" />
<glyph unicode="F" glyph-name="F" horiz-adv-x="571" d="M-14 49H54L204 649H136L148 698H647L602 522H516L547 645H317L249 373H408L426 447H485L435 246H376L394 320H236L168 49H258L246 0H-26L-14 49Z" />
<glyph unicode="G" glyph-name="G" horiz-adv-x="691" d="M267 -12Q167 -12 111 48T54 225Q54 303 78 388T151 545T270 663T434 710Q497 710 536 689T585 636H594L609 698H695L642 486H556L568 536Q570 543 571 550T572 565Q572 607 538 629T448 652Q402 652 364
634T297 585T246 510T213 418Q199 364 191 329T177 268T169 225T167 189Q167 126 198 87T288 48Q350 48 400 86T467 193L491 292H388L400 341H672L659 292H605L534 0H493L469 93H462Q450 74 432 55T389 21T334 -3T267 -12Z" />
<glyph unicode="H" glyph-name="H" horiz-adv-x="728" d="M-14 49H54L204 649H136L148 698H398L386 649H318L252 384H538L604 649H536L548 698H798L786 649H718L568 49H636L624 0H374L386 49H454L524 330H239L168 49H236L224 0H-26L-14 49Z" />
<glyph unicode="I" glyph-name="I" horiz-adv-x="327" d="M-14 49H54L204 649H136L148 698H398L386 649H318L168 49H236L224 0H-26L-14 49Z" />
<glyph unicode="J" glyph-name="J" horiz-adv-x="448" d="M104 -12Q38 -12 5 15T-28 82Q-28 111 -10 133T40 156Q67 156 83 141T99 102Q99 85 89 70T59 46V42Q64 40 74 38T95 36Q140 36 167 65T208 153L332 649H242L254 698H526L514 649H446L325 165Q303 77 250
33T104 -12Z" />
<glyph unicode="K" glyph-name="K" horiz-adv-x="680" d="M-14 49H54L204 649H136L148 698H398L386 649H318L238 329H245L355 432L588 649H510L522 698H742L730 649H669L423 422L554 49H616L604 0H352L364 49H432L334 353L217 244L168 49H236L224 0H-26L-14 49Z" />
<glyph unicode="L" glyph-name="L" horiz-adv-x="550" d="M-14 49H54L204 649H136L148 698H398L386 649H318L169 53H380L414 189H500L453 0H-26L-14 49Z" />
<glyph unicode="M" glyph-name="M" horiz-adv-x="812" d="M-14 49H54L204 649H136L148 698H345L408 314H416L672 698H882L870 649H802L652 49H720L708 0H458L470 49H538L674 594H667L571 452L345 117L283 454L259 593H251L115 49H183L171 0H-26L-14 49Z" />
<glyph unicode="N" glyph-name="N" horiz-adv-x="712" d="M-14 49H54L204 649H136L148 698H344L518 158H526L649 649H581L593 698H790L778 649H710L548 0H457L260 598H252L115 49H183L171 0H-26L-14 49Z" />
<glyph unicode="O" glyph-name="O" horiz-adv-x="690" d="M298 44Q339 44 373 61T435 107T481 176T512 263Q527 321 536 360T551 427T559 475T562 515Q562 545 555 570T531 614T489 643T430 654Q389 654 355 637T293 591T247 522T216 435Q202 377 193 338T177
271T169 223T166 183Q166 153 173 128T197 84T238 55T298 44ZM286 -12Q175 -12 115 55T54 239Q54 282 64 334T94 438T146 540T221 626T319 687T442 710Q553 710 613 643T674 459Q674 416 664 364T634 260T582 158T507 72T409 11T286 -12Z" />
<glyph unicode="P" glyph-name="P" horiz-adv-x="597" d="M-14 49H54L204 649H136L148 698H471Q545 698 588 666T631 566Q631 533 620 491T582 410T506 345T384 319H236L168 49H258L246 0H-26L-14 49ZM249 372H370Q419 372 453 402T502 486Q503 493 506 504T511
527T516 550T518 571Q518 604 499 624T438 645H317L249 372Z" />
<glyph unicode="Q" glyph-name="Q" horiz-adv-x="690" d="M405 -178Q354 -178 328 -160T282 -104L233 -7Q147 8 101 72T54 239Q54 282 64 334T94 438T146 540T221 626T319 687T442 710Q553 710 613 643T674 459Q674 419 666 372T640 277T596 182T533 97T451 31T347
-7L397 -86Q411 -108 430 -119T478 -130H496L484 -178H405ZM298 44Q339 44 373 61T435 107T481 176T512 263Q527 321 536 360T551 427T559 475T562 515Q562 545 555 570T531 614T489 643T430 654Q389 654 355 637T293 591T247 522T216 435Q202 377 193 338T177
271T169 223T166 183Q166 153 173 128T197 84T238 55T298 44Z" />
<glyph unicode="R" glyph-name="R" horiz-adv-x="638" d="M-14 49H54L204 649H136L148 698H471Q545 698 588 666T631 567Q631 527 620 488T585 417T525 361T438 329L499 109Q507 78 524 64T573 49H583L572 0H503Q474 0 454 4T420 19T398 48T383 94L332 320H237L168
49H236L224 0H-26L-14 49ZM249 372H369Q419 372 453 402T502 486Q503 493 506 504T511 527T516 550T518 571Q518 604 499 624T438 645H317L249 372Z" />
<glyph unicode="S" glyph-name="S" horiz-adv-x="559" d="M230 -12Q173 -12 138 8T96 62H87L72 0H-14L37 205H123L111 157Q106 137 106 126Q106 88 134 67T222 45Q262 45 294 56T350 88T385 136T398 194Q398 235 376 257T306 296L262 313Q188 339 154 378T119
484Q119 532 138 573T190 645T270 693T372 710Q428 710 460 691T498 640H507L521 698H607L557 499H471L483 547Q487 564 487 577Q487 614 458 633T374 653Q335 653 306 642T257 613T227 572T217 524Q217 485 239 461T318 416L359 401Q435 374 467 335T500 234Q500
183 481 139T426 61T340 8T230 -12Z" />
<glyph unicode="T" glyph-name="T" horiz-adv-x="630" d="M115 49H205L353 645H209L178 522H92L136 698H711L667 522H581L612 645H467L319 49H409L398 0H103L115 49Z" />
<glyph unicode="U" glyph-name="U" horiz-adv-x="685" d="M299 -12Q198 -12 142 28T86 160Q86 183 91 212T104 275L197 649H129L142 698H392L379 649H311L210 246Q196 190 196 150Q196 99 224 73T315 47Q401 47 449 98T525 256L623 649H555L567 698H764L752 649H684L585
252Q550 112 482 50T299 -12Z" />
<glyph unicode="V" glyph-name="V" horiz-adv-x="618" d="M155 649H105L117 698H352L340 649H267L279 359L287 104H294L428 357L586 649H513L525 698H718L706 649H656L294 0H195L155 649Z" />
<glyph unicode="W" glyph-name="W" horiz-adv-x="919" d="M160 649H110L122 698H357L345 649H272L256 133H262L540 698H641L638 133H644L885 649H812L824 698H1017L1005 649H955L639 0H535L540 558H533L256 0H148L160 649Z" />
<glyph unicode="X" glyph-name="X" horiz-adv-x="631" d="M-41 49H16L281 344L173 649H116L128 698H366L354 649H291L368 419H375L569 649H506L518 698H716L704 649H647L390 364L503 49H560L548 0H310L322 49H385L304 288H297L94 49H157L145 0H-53L-41 49Z" />
<glyph unicode="Y" glyph-name="Y" horiz-adv-x="611" d="M116 49H196L253 283L157 649H107L119 698H360L348 649H275L345 354H353L569 649H496L509 698H706L694 649H644L370 294L310 49H390L378 0H104L116 49Z" />
<glyph unicode="Z" glyph-name="Z" horiz-adv-x="579" d="M-12 53L493 645H233L202 522H116L160 698H636L623 645L118 53H400L434 189H520L473 0H-25L-12 53Z" />
<glyph unicode="[" glyph-name="bracketleft" horiz-adv-x="302" d="M195 760H400L388 711H282L82 -89H188L175 -138H-30L195 760Z" />
<glyph unicode="\" glyph-name="backslash" horiz-adv-x="376" d="M164 748H233L262 -143H193L164 748Z" />
<glyph unicode="]" glyph-name="bracketright" horiz-adv-x="302" d="M-61 -89H45L245 711H139L152 760H357L132 -138H-73L-61 -89Z" />
<glyph unicode="^" glyph-name="asciicircum" horiz-adv-x="550" d="M77 342L342 698H422L514 336L453 312L372 629H367L130 312L77 342Z" />
<glyph unicode="_" glyph-name="underscore" horiz-adv-x="524" d="M-60 -99H406L391 -158H-75L-60 -99Z" />
<glyph unicode="`" glyph-name="grave" horiz-adv-x="600" d="M224 747L319 783L347 595L315 584L224 747Z" />
<glyph unicode="a" glyph-name="a" horiz-adv-x="564" d="M139 -12Q83 -12 59 27T34 138Q34 200 52 269T103 397T185 494T295 532Q339 532 367 510T406 440H416L467 520H521L405 63L423 55L527 169L557 149L492 66Q457 22 433 5T382 -12Q344 -12 329 8T313 54Q313
67 315 82T321 108L336 168L326 171Q308 132 289 99T248 41T198 2T139 -12ZM181 64Q209 64 239 94T295 168T342 260T371 343L376 363Q388 411 376 441T324 471Q278 471 238 427T172 291Q167 274 163 253T155 209T149 167T146 132Q146 100 153 82T181 64Z" />
<glyph unicode="b" glyph-name="b" horiz-adv-x="537" d="M242 -12Q198 -12 170 10T131 80H121L70 0H16L184 674H98L109 719L315 760L201 352L211 349Q229 387 248 420T289 478T338 517T398 532Q454 532 478 493T503 382Q503 320 485 251T433 123T351 26T242 -12ZM213
49Q259 49 299 93T365 229Q369 246 374 267T382 311T388 353T391 388Q391 420 384 438T356 456Q327 456 298 426T242 352T195 260T166 177L161 157Q149 109 161 79T213 49Z" />
<glyph unicode="c" glyph-name="c" horiz-adv-x="440" d="M176 -12Q104 -12 70 29T36 149Q36 207 52 274T100 398T183 494T303 532Q366 532 401 503T437 426Q437 390 417 364T360 338Q332 338 319 354T306 392Q306 415 324 438T381 463V472Q356 489 315 489Q293
489 274 481T237 452T204 395T174 301Q163 259 155 215T147 139Q147 54 212 54Q257 54 296 91T373 198L407 182Q383 134 359 98T308 37T248 0T176 -12Z" />
<glyph unicode="d" glyph-name="d" horiz-adv-x="567" d="M139 -12Q83 -12 59 27T34 138Q34 200 52 269T104 397T185 494T293 532Q338 532 360 512T393 460H403L452 674H366L377 719L581 760L405 63L423 55L527 169L557 149L492 66Q458 21 433 5T382 -12Q344 -12
329 8T313 54Q313 67 315 82T321 108L336 168L326 171Q308 132 289 99T248 41T198 2T139 -12ZM181 64Q200 64 220 78T259 116T296 170T329 231T354 291T371 342L376 362Q389 410 377 440T324 471Q278 471 238 427T172 291Q167 274 163 253T155 209T149 167T146
132Q146 100 153 82T181 64Z" />
<glyph unicode="e" glyph-name="e" horiz-adv-x="460" d="M176 -12Q103 -12 70 30T36 153Q36 191 43 234T64 319T102 399T156 467T226 514T315 532Q341 532 365 527T409 509T440 477T452 428Q452 402 439 375T394 323T305 282T164 259Q156 227 152 196T147 139Q147
54 213 54Q258 54 298 92T375 198L409 182Q385 134 361 98T310 37T249 0T176 -12ZM172 294Q272 307 314 341T356 429Q356 454 345 470T305 486Q283 486 265 477T231 445T201 385T172 294Z" />
<glyph unicode="f" glyph-name="f" horiz-adv-x="328" d="M-71 -212Q-123 -212 -148 -191T-173 -140Q-173 -114 -156 -95T-110 -75Q-85 -75 -71 -89T-57 -125Q-57 -139 -64 -153T-88 -175L-82 -183Q-42 -183 -19 -156T19 -75L154 468H65L79 520H167L182 583Q192
626 212 659T260 714T322 748T396 760Q449 760 473 739T498 688Q498 662 481 643T435 623Q411 623 397 637T382 673Q382 687 390 701T413 723L407 731Q365 731 340 704T300 623L274 520H382L369 468H262L136 -35Q115 -120 60 -166T-71 -212Z" />
<glyph unicode="g" glyph-name="g" horiz-adv-x="486" d="M137 -212Q80 -212 41 -204T-24 -182T-61 -148T-73 -107Q-73 -82 -60 -63T-24 -28T27 -3T84 16L86 24Q58 38 44 55T29 99Q29 121 38 138T62 167T96 188T135 201L136 209Q108 226 92 254T76 323Q76 369
94 407T143 474T217 517T307 532Q330 532 349 527T386 514Q398 561 420 587T477 614Q502 614 516 602T530 568Q530 545 515 529T477 513Q442 513 433 547H428L411 497Q431 479 441 455T452 398Q452 352 434 314T384 248T311 205T222 190Q197 190 180 194Q156 190
136 179T115 146Q115 130 129 122T169 106L262 73Q332 49 367 21T402 -57Q402 -99 380 -128T321 -176T237 -203T137 -212ZM233 231Q274 231 297 260T333 337Q343 378 347 398T351 430Q351 459 338 475T295 491Q254 491 231 462T195 385Q185 344 181 324T177 292Q177
263 190 247T233 231ZM151 -177Q179 -177 206 -173T254 -158T288 -131T301 -90Q301 -62 283 -50T232 -26L127 9Q104 1 84 -9T47 -32T22 -61T13 -96Q13 -132 45 -154T151 -177Z" />
<glyph unicode="h" glyph-name="h" horiz-adv-x="572" d="M379 -12Q339 -12 322 9T305 56Q305 67 307 80T313 105L396 407Q399 419 399 429Q399 457 373 457Q349 457 319 432T258 364T202 263T159 141L124 0H16L185 674H99L110 719L314 760L201 345L211 342Q231
379 252 413T297 473T351 516T416 532Q464 532 485 507T506 440Q506 426 504 410T496 377L410 63L428 55L532 169L562 149L497 66Q463 21 436 5T379 -12Z" />
<glyph unicode="i" glyph-name="i" horiz-adv-x="314" d="M124 -12Q84 -12 67 9T49 56Q49 67 52 81T57 106L142 446H56L67 491L271 532L154 63L172 55L276 169L306 149L241 66Q206 19 178 4T124 -12ZM243 625Q214 625 199 640T184 676Q184 687 187 698Q193 723
212 738T260 753Q289 753 304 738T319 702Q319 697 319 691T316 680Q310 655 291 640T243 625Z" />
<glyph unicode="j" glyph-name="j" horiz-adv-x="286" d="M-65 -212Q-117 -212 -141 -193T-165 -145Q-165 -118 -149 -99T-103 -79Q-80 -79 -66 -93T-51 -129Q-51 -141 -57 -155T-79 -178L-74 -186Q-39 -184 -21 -155T12 -69L141 446H55L66 491L270 532L127 -41Q107
-123 56 -167T-65 -212ZM242 625Q213 625 198 640T183 676Q183 687 186 698Q192 723 211 738T259 753Q288 753 303 738T318 702Q318 697 318 691T315 680Q309 655 290 640T242 625Z" />
<glyph unicode="k" glyph-name="k" horiz-adv-x="555" d="M379 -12Q355 -12 336 -2T303 41L228 216Q273 241 306 268T360 323T392 374T402 419Q402 457 370 457Q345 457 315 431T256 362T202 261T160 141L124 0H16L185 674H99L110 719L314 760L201 345L211 342Q232
381 253 415T299 476T352 517T416 532Q464 532 485 506T506 440Q506 403 489 371T446 313T390 268T333 236L411 61H425L522 169L552 149L487 64Q470 41 456 27T430 4T406 -8T379 -12Z" />
<glyph unicode="l" glyph-name="l" horiz-adv-x="299" d="M109 -12Q69 -12 52 9T34 56Q34 67 36 81T42 106L184 674H98L109 719L313 760L139 63L157 55L261 169L291 149L226 66Q191 19 163 4T109 -12Z" />
<glyph unicode="m" glyph-name="m" horiz-adv-x="863" d="M670 -12Q650 -12 636 -6T613 9T600 31T596 56Q596 67 598 80T604 105L687 407Q690 419 690 429Q690 457 664 457Q639 457 609 432T548 363T492 263T450 141L415 0H307L407 405Q411 420 411 429Q411 457
386 457Q362 457 332 432T272 363T216 263T173 141L138 0H30L141 446H55L66 491L262 532L215 345L225 342Q245 379 266 413T311 473T364 516T428 532Q470 532 489 508T509 441Q509 418 503 393L492 346L502 343Q522 380 543 414T588 474T641 516T706 532Q754 532
775 507T797 440Q797 425 795 410T787 377L701 63L719 55L823 169L853 149L788 66Q753 21 726 5T670 -12Z" />
<glyph unicode="n" glyph-name="n" horiz-adv-x="586" d="M393 -12Q353 -12 336 9T319 56Q319 67 321 80T327 105L410 407Q413 419 413 429Q413 457 387 457Q363 457 333 432T272 363T216 263T173 141L138 0H30L141 446H55L66 491L262 532L215 345L225 342Q245
379 266 413T311 473T365 516T430 532Q478 532 499 507T520 440Q520 426 518 410T510 377L424 63L442 55L546 169L576 149L511 66Q477 21 450 5T393 -12Z" />
<glyph unicode="o" glyph-name="o" horiz-adv-x="519" d="M205 35Q231 35 251 46T288 78T316 126T336 186Q350 241 359 277T373 337T380 375T382 400Q382 437 367 461T314 485Q288 485 268 474T231 442T203 394T183 334Q169 279 160 243T146 183T139 145T137 120Q137
83 152 59T205 35ZM200 -12Q118 -12 77 38T35 175Q35 233 54 296T109 411T198 498T319 532Q401 532 442 482T484 345Q484 287 465 224T410 109T321 22T200 -12Z" />
<glyph unicode="p" glyph-name="p" horiz-adv-x="551" d="M-74 -152H-7L142 446H56L67 491L262 532L216 352L226 349Q244 387 263 420T304 478T353 517T413 532Q469 532 493 493T518 382Q518 320 500 251T449 123T367 26T258 -12Q179 -12 159 61H149L101 -152H191L179
-200H-86L-74 -152ZM228 49Q274 49 314 93T380 229Q384 246 389 267T397 311T403 353T406 388Q406 420 399 438T371 456Q342 456 313 426T257 352T210 260T181 177L176 157Q164 109 176 79T228 49Z" />
<glyph unicode="q" glyph-name="q" horiz-adv-x="539" d="M156 -152H246L336 168L326 171Q308 132 289 99T248 41T199 2T139 -12Q83 -12 59 27T34 138Q34 200 52 269T103 397T185 494T295 532Q339 532 367 510T406 440H416L467 520H521L354 -152H421L410 -200H144L156
-152ZM181 64Q210 64 240 95T297 171T343 263T371 342L376 362Q389 410 377 440T324 471Q278 471 238 427T172 291Q167 274 163 253T155 209T149 167T146 132Q146 100 153 82T181 64Z" />
<glyph unicode="r" glyph-name="r" horiz-adv-x="455" d="M141 446H55L66 491L260 532L214 350L224 347Q242 392 260 426T298 484T342 520T395 532Q436 532 457 512T479 459Q479 429 460 406T408 383Q383 383 368 397T352 434Q352 448 358 461T373 483L367 490Q341
485 311 446T251 344Q242 325 230 298T207 240T184 174T165 108L138 0H30L141 446Z" />
<glyph unicode="s" glyph-name="s" horiz-adv-x="391" d="M107 -12Q45 -12 19 8T-8 60Q-8 84 8 103T54 123Q76 123 91 110T106 73Q106 60 100 46T85 24L91 15Q112 17 133 23T173 41T202 71T213 115Q213 136 206 153T188 186T161 218T130 252Q111 275 95 301T79
365Q79 404 95 435T138 487T201 520T279 532Q340 532 366 512T392 460Q392 436 376 417T330 397Q308 397 293 410T278 447Q278 460 284 474T299 496L293 505Q273 503 253 497T218 478T193 448T183 405Q183 384 190 367T209 333T236 301T267 267Q285 245 301 220T317
155Q317 115 300 84T255 32T188 -1T107 -12Z" />
<glyph unicode="t" glyph-name="t" horiz-adv-x="368" d="M129 -12Q90 -12 73 8T56 55Q56 67 59 81T64 106L154 468H67L80 520H121Q153 520 169 530T199 566L252 659H309L275 520H397L384 468H262L162 66L179 56L311 164L338 139L244 51Q223 31 207 19T178 -1T154
-10T129 -12Z" />
<glyph unicode="u" glyph-name="u" horiz-adv-x="586" d="M141 -12Q94 -12 73 13T51 80Q51 95 53 111T61 144L144 446H57L68 491L277 532L161 113Q158 101 158 91Q158 63 184 63Q208 63 238 88T299 157T355 257T398 379L433 520H541L426 63L444 55L548 169L578
149L513 66Q477 18 450 3T399 -12Q361 -12 346 8T330 54Q330 67 333 82T339 108L356 175L346 178Q326 141 305 107T260 46T206 4T141 -12Z" />
<glyph unicode="v" glyph-name="v" horiz-adv-x="478" d="M92 472H50L62 520H273L261 472H203L221 115H230L425 472H369L381 520H542L529 472H490L212 0H129L92 472Z" />
<glyph unicode="w" glyph-name="w" horiz-adv-x="737" d="M103 472H61L73 520H282L270 472H211L200 118H209L418 520H499L493 118H502L682 472H623L635 520H797L785 472H746L484 0H401L404 379H396L195 0H107L103 472Z" />
<glyph unicode="x" glyph-name="x" horiz-adv-x="591" d="M76 -12Q34 -12 12 7T-10 56Q-10 88 9 111T61 134Q86 134 101 120T116 83Q116 69 110 55T96 33L102 28Q118 31 136 49T172 96T209 164T245 249L194 456L178 459L93 369L66 391L117 454Q155 501 181 516T233
532Q265 532 280 515T300 468L325 326H332Q345 364 359 397T390 456Q417 497 450 514T514 532Q556 532 578 513T600 464Q600 432 581 409T529 386Q504 386 489 400T474 437Q474 451 480 465T494 487L488 492Q471 489 454 471T418 424T381 356T345 271L396 64L412
61L497 151L524 129L473 66Q435 19 409 4T357 -12Q325 -12 310 5T290 52L265 194H258Q245 156 231 123T200 64Q173 23 140 6T76 -12Z" />
<glyph unicode="y" glyph-name="y" horiz-adv-x="478" d="M-3 -212Q-44 -212 -68 -193T-93 -143Q-93 -115 -75 -94T-26 -73Q-1 -73 13 -87T27 -123Q27 -137 21 -150T6 -171L13 -177Q46 -163 76 -130T141 -30L91 472H49L61 520H270L259 472H201L224 115H233L431
472H375L387 520H546L533 472H494L175 -67Q127 -148 82 -180T-3 -212Z" />
<glyph unicode="z" glyph-name="z" horiz-adv-x="467" d="M312 -12Q289 -12 265 -9T211 2T141 21T48 50L36 0H-18L-9 35Q-4 58 4 70T31 100L335 402L141 436L124 426L90 325L55 331L87 465Q96 504 115 518T172 532Q193 532 214 529T261 518T322 499T405 471L418
520H471L462 485Q456 462 449 450T423 420L117 119L343 84L360 94L395 195L430 189L398 56Q388 17 369 3T312 -12Z" />
<glyph unicode="{" glyph-name="braceleft" horiz-adv-x="323" d="M87 -138Q58 -138 42 -121T26 -78Q26 -66 30 -50L91 196Q93 206 93 211T94 223Q94 253 75 267T22 282L36 339Q75 339 106 362T149 429L212 680Q221 716 248 738T327 760H421L409 711H320L251 436Q245
413 233 393T203 357T164 331T119 317L116 305Q148 299 169 272T190 206Q190 191 185 171L120 -89H208L196 -138H87V-138Z" />
<glyph unicode="|" glyph-name="bar" horiz-adv-x="327" d="M253 760H323L99 -138H29L253 760Z" />
<glyph unicode="}" glyph-name="braceright" horiz-adv-x="323" d="M-61 -89H28L97 186Q103 209 115 229T145 265T184 291T229 305L232 317Q200 323 179 350T158 416Q158 431 163 451L228 711H140L152 760H261Q290 760 306 743T322 700Q322 688 318 672L257 426Q255
415 255 410T254 399Q254 369 273 355T326 340L312 283Q273 283 242 260T199 193L136 -58Q127 -94 100 -116T21 -138H-73L-61 -89Z" />
<glyph unicode="~" glyph-name="asciitilde" horiz-adv-x="550" d="M377 242Q345 242 322 252T270 279Q247 293 226 302T178 312Q156 312 138 305T96 281L74 322Q97 347 124 361T193 375Q225 375 248 365T300 338Q323 324 344 315T392 305Q414 305 432 312T474
336L496 295Q473 270 446 256T377 242Z" />
<glyph unicode="&#xa0;" glyph-name="uni00A0" horiz-adv-x="212" />
<glyph unicode="&#xa1;" glyph-name="exclamdown" horiz-adv-x="267" d="M173 386Q142 386 125 404T108 445Q108 450 108 456T111 470Q119 499 140 515T192 532Q223 532 240 514T257 473Q257 468 257 462T254 448Q246 419 225 403T173 386ZM15 9L127 322H173L129
9L82 -178H-32L15 9Z" />
<glyph unicode="&#xa2;" glyph-name="cent" horiz-adv-x="467" d="M156 -10Q36 0 36 149Q36 186 42 227T62 309T96 388T145 456T209 505T291 529L316 629H367L342 529Q398 523 428 495T458 427Q458 393 439 370T387 346Q361 346 349 360T336 393Q336 404 340 415T353
437T375 453T407 461V469Q396 476 375 481T330 488L222 54Q273 56 312 94T387 198L421 182Q399 137 377 103T329 44T273 6T207 -11L181 -114H130L156 -10ZM281 482Q244 471 218 430T167 300Q156 258 149 215T141 139Q141 110 149 90T176 60L281 482Z" />
<glyph unicode="&#xa3;" glyph-name="sterling" horiz-adv-x="544" d="M-4 80Q17 90 41 111T86 163T120 232T134 312H50L63 362H130Q128 377 127 395T125 439Q125 510 147 561T207 646T290 694T384 710Q418 710 449 702T504 679T542 642T556 589Q556 555 536 529T482
502Q454 502 439 518T424 558Q424 584 440 604T487 633L488 640Q468 648 449 652T401 656Q357 656 326 639T275 592T245 524T235 443Q235 425 236 405T237 362H395L382 312H236Q234 270 221 236T187 173T137 124T76 88L75 80H386L414 191H472L424 0H-24L-4 80Z"
/>
<glyph unicode="&#xa4;" glyph-name="currency" horiz-adv-x="601" d="M271 115Q233 115 205 126T156 157L43 59L1 119L117 219Q108 244 108 275Q108 332 127 388T183 488L115 592L176 642L242 542Q271 562 303 572T373 583Q411 583 439 572T488 541L601 639L643
579L527 479Q536 453 536 423Q536 366 517 310T461 210L529 106L468 56L402 156Q373 136 341 126T271 115ZM278 162Q330 162 363 199T411 291Q426 353 435 390T445 459Q445 496 423 516T366 536Q314 536 281 499T233 407Q218 345 209 308T199 239Q199 202 221 182T278
162Z" />
<glyph unicode="&#xa5;" glyph-name="yen" horiz-adv-x="605" d="M119 49H197L222 151H66L79 200H234L259 300H103L116 349H251L175 649H125L137 698H375L363 649H290L347 377H353L551 649H478L490 698H687L675 649H625L396 349H535L523 300H366L341 200H498L486
151H329L304 49H382L370 0H106L119 49Z" />
<glyph unicode="&#xa6;" glyph-name="brokenbar" horiz-adv-x="328" d="M119 221H189L99 -138H29L119 221ZM254 760H324L234 401H164L254 760Z" />
<glyph unicode="&#xa7;" glyph-name="section" horiz-adv-x="519" d="M147 -157Q118 -157 93 -151T49 -133T20 -104T9 -66Q9 -34 28 -11T78 12Q101 12 115 -2T129 -38Q129 -60 114 -78T74 -101V-108Q101 -119 134 -119Q193 -119 229 -92T265 -20Q265 -3 259 11T243
38T219 63T189 89L144 126Q122 145 102 162T67 199T44 240T35 289Q35 317 46 341T78 385T126 416T186 435L189 446Q172 466 164 487T156 535Q156 570 172 601T216 657T284 695T368 710Q397 710 422 704T466 686T495 657T506 619Q506 587 487 564T437 541Q414 541
400 555T386 591Q386 613 401 631T441 654V661Q414 672 381 672Q322 672 286 645T250 573Q250 556 256 542T272 515T296 490T326 464L371 427Q393 408 413 391T448 354T471 313T480 264Q480 235 469 211T437 168T389 137T329 118L326 107Q343 87 351 66T359 18Q359
-17 343 -48T299 -104T231 -142T147 -157ZM130 323Q130 306 135 292T151 265T175 240T206 214L251 177Q265 166 276 156T299 135Q343 146 364 172T385 230Q385 248 380 262T364 288T339 313T309 339L264 376Q237 398 216 418Q172 408 151 382T130 323Z" />
<glyph unicode="&#xa8;" glyph-name="dieresis" horiz-adv-x="600" d="M230 613Q204 613 191 628T178 662Q178 667 178 671T180 681Q185 701 202 715T243 729Q269 729 282 714T295 680Q295 675 295 671T293 661Q288 641 271 627T230 613ZM421 613Q395 613 382
628T369 662Q369 667 369 671T371 681Q376 701 393 715T434 729Q460 729 473 714T486 680Q486 675 486 671T484 661Q479 641 462 627T421 613Z" />
<glyph unicode="&#xa9;" glyph-name="copyright" horiz-adv-x="771" d="M350 147Q294 147 269 176T243 266Q243 309 255 358T292 451T355 522T446 551Q494 551 519 528T544 470Q544 444 529 425T488 406Q468 406 458 417T447 445Q447 462 460 479T502 498V504Q482
517 453 517Q437 517 423 512T396 491T372 450T349 382Q340 348 335 316T329 261Q329 199 378 199Q410 199 438 225T495 302L521 290Q486 218 447 183T350 147ZM348 30Q407 30 459 50T553 107T623 191T665 296Q673 331 679 365T686 418Q686 476 670 522T625 601T553
651T459 668Q400 668 348 647T254 590T184 506T142 402Q134 367 128 333T121 280Q121 221 137 175T182 97T254 47T348 30ZM343 -12Q279 -12 228 9T140 69T85 162T66 281Q66 362 94 439T175 576T301 673T464 710Q528 710 579 689T667 629T722 536T741 417Q741 336
713 259T632 122T506 25T343 -12Z" />
<glyph unicode="&#xaa;" glyph-name="ordfeminine" horiz-adv-x="386" d="M157 336Q123 336 103 355T83 404Q83 459 133 496T300 539Q306 564 310 585T315 620Q315 646 301 658T263 671Q238 671 217 662L216 656Q221 653 224 648T228 631Q228 612 216 598T182
583Q166 583 157 591T147 619Q147 635 157 650T185 678T227 697T281 704Q329 704 359 682T389 615Q389 604 387 589T382 562L339 388L351 382L421 458L441 445L395 387Q372 358 354 347T319 336Q294 336 282 348T270 380Q270 386 271 394T278 423L272 424Q254 382
224 359T157 336ZM191 378Q204 378 219 388T247 413T271 448T286 484L293 512Q242 507 216 495T174 462Q166 452 163 439T159 413Q159 396 168 387T191 378Z" />
<glyph unicode="&#xab;" glyph-name="guillemotleft" horiz-adv-x="496" d="M47 259L59 309L275 490L291 454L147 274L205 103L178 74L47 259ZM253 259L265 309L481 490L497 454L353 274L411 103L384 74L253 259Z" />
<glyph unicode="&#xac;" glyph-name="logicalnot" horiz-adv-x="550" d="M412 275H64L79 335H496L432 81H364L412 275Z" />
<glyph unicode="&#xad;" glyph-name="uni00AD" horiz-adv-x="363" d="M74 343H331L312 267H55L74 343Z" />
<glyph unicode="&#xae;" glyph-name="registered" horiz-adv-x="442" d="M169 419H188L231 589H212L217 610H318Q373 610 373 566Q373 539 357 520T314 493L332 435Q337 419 355 419H358L352 398H333Q313 398 305 404T291 428L273 490H249L231 419H250L244 398H164L169
419ZM260 330Q327 330 372 373T431 482Q433 493 435 510T437 534Q437 565 427 591T399 637T355 667T299 678Q232 678 187 635T128 526Q126 515 124 498T122 474Q122 442 132 416T160 371T204 341T260 330ZM257 298Q220 298 189 311T134 348T97 403T84 472Q84 523
100 566T146 642T215 692T302 710Q339 710 370 697T425 660T462 605T475 536Q475 485 459 442T413 366T344 316T257 298ZM255 512H289Q302 512 311 520T323 542Q325 549 326 555T327 566Q327 585 305 585H273L255 512Z" />
<glyph unicode="&#xaf;" glyph-name="overscore" horiz-adv-x="600" d="M206 705H476L459 639H189L206 705Z" />
<glyph unicode="&#xb0;" glyph-name="degree" horiz-adv-x="429" d="M264 356Q232 356 205 367T157 399T125 449T113 513Q113 555 127 591T167 653T226 695T301 710Q333 710 360 699T408 666T440 616T452 553Q452 511 438 475T398 412T339 371T264 356ZM270 413Q297
413 318 424T355 454T378 498T387 554Q387 595 362 624T295 653Q268 653 247 642T210 612T187 567T178 512Q178 470 203 442T270 413Z" />
<glyph unicode="&#xb1;" glyph-name="plusminus" horiz-adv-x="550" d="M266 364H87L102 424H282L330 615H398L350 424H530L515 364H334L286 173H218L266 364ZM11 60H439L424 0H-4L11 60Z" />
<glyph unicode="&#xb2;" glyph-name="twosuperior" horiz-adv-x="342" d="M71 389L198 491Q228 516 251 540T282 597Q284 603 285 610T287 629Q287 646 276 657T242 668Q217 668 198 660L196 655Q215 649 215 630Q215 610 201 596T167 581Q149 581 140 590T130
617Q130 635 141 651T170 678T211 697T261 704Q318 704 344 682T371 622Q371 593 359 569T327 525T286 490T243 462L131 393L130 388H281L292 433H339L314 330H56L71 389Z" />
<glyph unicode="&#xb3;" glyph-name="threesuperior" horiz-adv-x="336" d="M166 324Q120 324 94 343T67 393Q67 418 81 432T115 447Q132 447 142 439T152 413Q152 397 143 387T119 373L117 368Q132 359 157 359Q190 359 213 377T244 429Q246 437 248 446T250
461Q250 501 198 501H169L179 541H201Q236 541 255 559T282 604Q283 607 285 616T287 632Q287 650 275 659T242 668Q231 668 220 666T200 660L198 656Q215 649 215 628Q215 612 203 598T168 583Q150 583 141 593T132 620Q132 637 142 652T171 678T213 697T264 704Q372
704 372 630Q372 606 363 588T339 557T306 537T270 527L269 522Q299 515 316 497T333 452Q333 426 322 403T290 362T238 334T166 324Z" />
<glyph unicode="&#xb4;" glyph-name="acute" horiz-adv-x="600" d="M277 600L381 783L468 738L308 584L277 600Z" />
<glyph unicode="&#xb5;" glyph-name="mu" horiz-adv-x="585" d="M144 446H57L68 491L277 532L167 134Q164 123 161 112T158 93Q158 76 165 70T184 63Q208 63 237 87T297 155T353 255T397 379L433 520H542L426 63L444 55L548 169L578 149L513 66Q494 41 478 26T449
3T423 -9T399 -12Q361 -12 346 8T330 54Q330 67 333 82T339 108L356 175L346 178Q327 141 307 107T265 46T219 4T165 -12Q141 -12 127 3T110 48H101L92 -142L78 -200H-25L144 446Z" />
<glyph unicode="&#xb6;" glyph-name="paragraph" horiz-adv-x="560" d="M155 -156Q120 -156 93 -148T47 -125T17 -91T7 -50Q7 -15 27 8T76 31Q102 31 115 16T128 -19Q128 -45 113 -62T70 -84L68 -92Q102 -111 155 -111H167L270 298Q229 298 195 309T136 342T98
395T84 468Q84 523 107 566T170 638T260 682T367 698H625L613 649H545L401 76Q373 -36 310 -96T155 -156ZM224 -96Q314 -58 349 79L492 649H411L224 -96Z" />
<glyph unicode="&#xb7;" glyph-name="middot" horiz-adv-x="313" d="M158 232Q127 232 110 250T93 291Q93 296 93 302T96 316Q104 345 125 361T177 378Q208 378 225 360T242 319Q242 314 242 308T239 294Q231 265 210 249T158 232Z" />
<glyph unicode="&#xb8;" glyph-name="cedilla" horiz-adv-x="600" d="M267 -209Q231 -209 209 -195T179 -165L203 -140Q221 -166 260 -166Q277 -166 287 -161T304 -147T312 -131T315 -116Q315 -102 306 -93T269 -80L243 -77L282 11H326L295 -60L297 -64Q307 -60
316 -59T333 -58Q359 -58 375 -71T391 -109Q391 -132 381 -150T353 -182T313 -202T267 -209Z" />
<glyph unicode="&#xb9;" glyph-name="onesuperior" horiz-adv-x="333" d="M75 369H164L232 639L131 599L124 633L270 698H326L244 369H323L313 330H65L75 369Z" />
<glyph unicode="&#xba;" glyph-name="ordmasculine" horiz-adv-x="383" d="M221 373Q259 373 283 402T319 477Q331 527 338 558T346 609Q346 638 332 652T293 667Q255 667 231 638T195 563Q183 513 176 482T168 431Q168 402 182 388T221 373ZM217 336Q157 336
127 369T96 460Q96 504 110 547T150 626T213 682T297 704Q357 704 387 671T418 580Q418 536 404 493T364 414T301 358T217 336Z" />
<glyph unicode="&#xbb;" glyph-name="guillemotright" horiz-adv-x="496" d="M9 110L153 290L95 461L122 490L253 305L241 255L25 74L9 110ZM215 110L359 290L301 461L328 490L459 305L447 255L231 74L215 110Z" />
<glyph unicode="&#xbc;" glyph-name="onequarter" horiz-adv-x="839" d="M75 369H164L232 639L131 599L124 633L270 698H326L244 369H323L313 330H65L75 369ZM725 698H793L160 0H92L725 698ZM578 72H420L434 127L638 368H728L668 127H714L700 72H654L636 0H560L578
72ZM478 127H592L638 309H631L478 127Z" />
<glyph unicode="&#xbd;" glyph-name="onehalf" horiz-adv-x="841" d="M75 369H164L232 639L131 599L124 633L270 698H326L244 369H323L313 330H65L75 369ZM725 698H793L160 0H92L725 698ZM462 59L589 161Q619 186 642 210T673 267Q675 273 676 280T678 299Q678
316 667 327T633 338Q608 338 589 330L587 325Q606 319 606 300Q606 280 592 266T558 251Q540 251 531 260T521 287Q521 305 532 321T561 348T602 367T652 374Q709 374 735 352T762 292Q762 263 750 239T718 195T677 160T634 132L522 63L521 58H672L683 103H730L705
0H447L462 59Z" />
<glyph unicode="&#xbe;" glyph-name="threequarters" horiz-adv-x="802" d="M166 324Q120 324 94 343T67 393Q67 418 81 432T115 447Q132 447 142 439T152 413Q152 397 143 387T119 373L117 368Q132 359 157 359Q190 359 213 377T244 429Q246 437 248 446T250
461Q250 501 198 501H169L179 541H201Q236 541 255 559T282 604Q283 607 285 616T287 632Q287 650 275 659T242 668Q231 668 220 666T200 660L198 656Q215 649 215 628Q215 612 203 598T168 583Q150 583 141 593T132 620Q132 637 142 652T171 678T213 697T264 704Q372
704 372 630Q372 606 363 588T339 557T306 537T270 527L269 522Q299 515 316 497T333 452Q333 426 322 403T290 362T238 334T166 324ZM688 698H756L123 0H55L688 698ZM541 72H383L397 127L601 368H691L631 127H677L663 72H617L599 0H523L541 72ZM441 127H555L601
309H594L441 127Z" />
<glyph unicode="&#xbf;" glyph-name="questiondown" horiz-adv-x="455" d="M131 -190Q85 -190 53 -180T0 -152T-30 -109T-40 -55Q-40 3 -16 48T46 126T134 177T235 200L261 304H321L282 146Q207 142 157 107T89 2Q86 -9 82 -26T78 -61Q78 -99 101 -119T164 -139Q188
-139 213 -135T255 -121L258 -113Q221 -103 221 -63Q221 -38 239 -15T292 8Q320 8 336 -7T352 -49Q352 -79 333 -104T283 -149T213 -179T131 -190ZM317 386Q286 386 269 404T252 445Q252 450 252 456T255 470Q263 499 284 515T336 532Q367 532 384 514T401 473Q401
468 401 462T398 448Q390 419 369 403T317 386Z" />
<glyph unicode="&#xc0;" glyph-name="Agrave" horiz-adv-x="649" d="M-42 49H8L382 698H486L536 49H586L574 0H339L351 49H424L413 225H178L80 49H153L141 0H-54L-42 49ZM205 277H411L393 606H386L205 277ZM354 917L449 953L477 765L445 754L354 917Z" />
<glyph unicode="&#xc1;" glyph-name="Aacute" horiz-adv-x="649" d="M-42 49H8L382 698H486L536 49H586L574 0H339L351 49H424L413 225H178L80 49H153L141 0H-54L-42 49ZM205 277H411L393 606H386L205 277ZM411 770L515 953L602 908L442 754L411 770Z" />
<glyph unicode="&#xc2;" glyph-name="Acircumflex" horiz-adv-x="649" d="M-42 49H8L382 698H486L536 49H586L574 0H339L351 49H424L413 225H178L80 49H153L141 0H-54L-42 49ZM205 277H411L393 606H386L205 277ZM304 779L456 943H526L605 775L576 760L478 861L330
760L304 779Z" />
<glyph unicode="&#xc3;" glyph-name="Atilde" horiz-adv-x="649" d="M-42 49H8L382 698H486L536 49H586L574 0H339L351 49H424L413 225H178L80 49H153L141 0H-54L-42 49ZM205 277H411L393 606H386L205 277ZM528 779Q505 779 487 787T448 806Q425 818 410 826T377
835Q364 835 352 829T321 803L297 826Q321 856 344 879T400 902Q423 902 441 894T480 875Q503 863 518 855T551 846Q564 846 576 852T607 878L631 855Q607 825 584 802T528 779Z" />
<glyph unicode="&#xc4;" glyph-name="Adieresis" horiz-adv-x="649" d="M-42 49H8L382 698H486L536 49H586L574 0H339L351 49H424L413 225H178L80 49H153L141 0H-54L-42 49ZM205 277H411L393 606H386L205 277ZM365 783Q339 783 326 798T313 832Q313 837 313 841T315
851Q320 871 337 885T378 899Q404 899 417 884T430 850Q430 845 430 841T428 831Q423 811 406 797T365 783ZM556 783Q530 783 517 798T504 832Q504 837 504 841T506 851Q511 871 528 885T569 899Q595 899 608 884T621 850Q621 845 621 841T619 831Q614 811 597
797T556 783Z" />
<glyph unicode="&#xc5;" glyph-name="Aring" horiz-adv-x="649" d="M-42 49H8L382 698H486L536 49H586L574 0H339L351 49H424L413 225H178L80 49H153L141 0H-54L-42 49ZM205 277H411L393 606H386L205 277ZM456 777Q482 777 497 792T520 834Q525 855 529 875T533
904Q533 922 523 933T489 945Q463 945 448 930T425 888Q420 867 416 847T412 818Q412 800 422 789T456 777ZM453 737Q403 737 377 766T350 832Q350 865 361 893T391 941T436 973T492 985Q542 985 568 956T595 890Q595 857 584 829T554 781T509 749T453 737Z" />
<glyph unicode="&#xc6;" glyph-name="AE" horiz-adv-x="912" d="M-42 49H8L444 649H373L385 698H962L918 522H832L863 645H632L568 388H726L745 462H804L753 261H694L713 335H555L484 53H724L758 189H844L797 0H289L301 49H369L413 225H205L79 49H149L137 0H-54L-42
49ZM240 277H426L519 649H511L240 277Z" />
<glyph unicode="&#xc7;" glyph-name="Ccedilla" horiz-adv-x="597" d="M241 -209Q205 -209 183 -195T153 -165L177 -140Q195 -166 234 -166Q251 -166 261 -161T278 -147T286 -131T289 -116Q289 -102 280 -93T243 -80L217 -77L246 -11Q204 -8 169 7T108 52T68 125T54
226Q54 276 64 331T96 441T148 543T219 629T310 688T420 710Q477 710 510 689T552 636H561L576 698H662L609 486H523L535 536Q537 544 538 551T539 565Q539 607 510 629T432 652Q389 652 354 634T292 585T246 514T216 429Q202 375 194 339T180 278T172 234T170
198Q170 133 202 94T300 55Q368 55 417 92T502 187L540 163Q523 133 499 104T443 50T373 10T290 -11L269 -60L271 -64Q281 -60 290 -59T307 -58Q333 -58 349 -71T365 -109Q365 -132 355 -150T327 -182T287 -202T241 -209Z" />
<glyph unicode="&#xc8;" glyph-name="Egrave" horiz-adv-x="597" d="M-14 49H54L204 649H136L148 698H647L603 522H517L548 645H317L253 388H411L430 462H489L438 261H379L398 335H240L169 53H409L443 189H529L482 0H-26L-14 49ZM328 917L423 953L451 765L419
754L328 917Z" />
<glyph unicode="&#xc9;" glyph-name="Eacute" horiz-adv-x="597" d="M-14 49H54L204 649H136L148 698H647L603 522H517L548 645H317L253 388H411L430 462H489L438 261H379L398 335H240L169 53H409L443 189H529L482 0H-26L-14 49ZM385 770L489 953L576 908L416
754L385 770Z" />
<glyph unicode="&#xca;" glyph-name="Ecircumflex" horiz-adv-x="597" d="M-14 49H54L204 649H136L148 698H647L603 522H517L548 645H317L253 388H411L430 462H489L438 261H379L398 335H240L169 53H409L443 189H529L482 0H-26L-14 49ZM278 779L430 943H500L579
775L550 760L452 861L304 760L278 779Z" />
<glyph unicode="&#xcb;" glyph-name="Edieresis" horiz-adv-x="597" d="M-14 49H54L204 649H136L148 698H647L603 522H517L548 645H317L253 388H411L430 462H489L438 261H379L398 335H240L169 53H409L443 189H529L482 0H-26L-14 49ZM339 783Q313 783 300 798T287
832Q287 837 287 841T289 851Q294 871 311 885T352 899Q378 899 391 884T404 850Q404 845 404 841T402 831Q397 811 380 797T339 783ZM530 783Q504 783 491 798T478 832Q478 837 478 841T480 851Q485 871 502 885T543 899Q569 899 582 884T595 850Q595 845 595
841T593 831Q588 811 571 797T530 783Z" />
<glyph unicode="&#xcc;" glyph-name="Igrave" horiz-adv-x="327" d="M-14 49H54L204 649H136L148 698H398L386 649H318L168 49H236L224 0H-26L-14 49ZM452 917L547 953L575 765L543 754L452 917Z" />
<glyph unicode="&#xcd;" glyph-name="Iacute" horiz-adv-x="327" d="M-14 49H54L204 649H136L148 698H398L386 649H318L168 49H236L224 0H-26L-14 49ZM509 770L613 953L700 908L540 754L509 770Z" />
<glyph unicode="&#xce;" glyph-name="Icircumflex" horiz-adv-x="327" d="M-14 49H54L204 649H136L148 698H398L386 649H318L168 49H236L224 0H-26L-14 49ZM402 779L554 943H624L703 775L674 760L576 861L428 760L402 779Z" />
<glyph unicode="&#xcf;" glyph-name="Idieresis" horiz-adv-x="327" d="M-14 49H54L204 649H136L148 698H398L386 649H318L168 49H236L224 0H-26L-14 49ZM463 783Q437 783 424 798T411 832Q411 837 411 841T413 851Q418 871 435 885T476 899Q502 899 515 884T528
850Q528 845 528 841T526 831Q521 811 504 797T463 783ZM654 783Q628 783 615 798T602 832Q602 837 602 841T604 851Q609 871 626 885T667 899Q693 899 706 884T719 850Q719 845 719 841T717 831Q712 811 695 797T654 783Z" />
<glyph unicode="&#xd0;" glyph-name="Eth" horiz-adv-x="678" d="M-14 49H54L123 324H41L54 376H136L204 649H136L148 698H426Q541 698 602 634T663 460Q663 420 654 371T626 270T577 170T502 84T401 23T270 0H-26L-14 49ZM169 53H257Q351 53 415 115T507 287Q520
342 528 377T542 435T548 475T550 506Q550 573 514 609T406 645H317L250 376H367L354 324H237L169 53Z" />
<glyph unicode="&#xd1;" glyph-name="Ntilde" horiz-adv-x="712" d="M-14 49H54L204 649H136L148 698H344L518 158H526L649 649H581L593 698H790L778 649H710L548 0H457L260 598H252L115 49H183L171 0H-26L-14 49ZM576 779Q553 779 535 787T496 806Q473 818 458
826T425 835Q412 835 400 829T369 803L345 826Q369 856 392 879T448 902Q471 902 489 894T528 875Q551 863 566 855T599 846Q612 846 624 852T655 878L679 855Q655 825 632 802T576 779Z" />
<glyph unicode="&#xd2;" glyph-name="Ograve" horiz-adv-x="690" d="M298 44Q339 44 373 61T435 107T481 176T512 263Q527 321 536 360T551 427T559 475T562 515Q562 545 555 570T531 614T489 643T430 654Q389 654 355 637T293 591T247 522T216 435Q202 377 193
338T177 271T169 223T166 183Q166 153 173 128T197 84T238 55T298 44ZM286 -12Q175 -12 115 55T54 239Q54 282 64 334T94 438T146 540T221 626T319 687T442 710Q553 710 613 643T674 459Q674 416 664 364T634 260T582 158T507 72T409 11T286 -12ZM361 917L456 953L484
765L452 754L361 917Z" />
<glyph unicode="&#xd3;" glyph-name="Oacute" horiz-adv-x="690" d="M298 44Q339 44 373 61T435 107T481 176T512 263Q527 321 536 360T551 427T559 475T562 515Q562 545 555 570T531 614T489 643T430 654Q389 654 355 637T293 591T247 522T216 435Q202 377 193
338T177 271T169 223T166 183Q166 153 173 128T197 84T238 55T298 44ZM286 -12Q175 -12 115 55T54 239Q54 282 64 334T94 438T146 540T221 626T319 687T442 710Q553 710 613 643T674 459Q674 416 664 364T634 260T582 158T507 72T409 11T286 -12ZM418 770L522 953L609
908L449 754L418 770Z" />
<glyph unicode="&#xd4;" glyph-name="Ocircumflex" horiz-adv-x="690" d="M298 44Q339 44 373 61T435 107T481 176T512 263Q527 321 536 360T551 427T559 475T562 515Q562 545 555 570T531 614T489 643T430 654Q389 654 355 637T293 591T247 522T216 435Q202 377
193 338T177 271T169 223T166 183Q166 153 173 128T197 84T238 55T298 44ZM286 -12Q175 -12 115 55T54 239Q54 282 64 334T94 438T146 540T221 626T319 687T442 710Q553 710 613 643T674 459Q674 416 664 364T634 260T582 158T507 72T409 11T286 -12ZM311 779L463
943H533L612 775L583 760L485 861L337 760L311 779Z" />
<glyph unicode="&#xd5;" glyph-name="Otilde" horiz-adv-x="690" d="M298 44Q339 44 373 61T435 107T481 176T512 263Q527 321 536 360T551 427T559 475T562 515Q562 545 555 570T531 614T489 643T430 654Q389 654 355 637T293 591T247 522T216 435Q202 377 193
338T177 271T169 223T166 183Q166 153 173 128T197 84T238 55T298 44ZM286 -12Q175 -12 115 55T54 239Q54 282 64 334T94 438T146 540T221 626T319 687T442 710Q553 710 613 643T674 459Q674 416 664 364T634 260T582 158T507 72T409 11T286 -12ZM535 779Q512 779
494 787T455 806Q432 818 417 826T384 835Q371 835 359 829T328 803L304 826Q328 856 351 879T407 902Q430 902 448 894T487 875Q510 863 525 855T558 846Q571 846 583 852T614 878L638 855Q614 825 591 802T535 779Z" />
<glyph unicode="&#xd6;" glyph-name="Odieresis" horiz-adv-x="690" d="M298 44Q339 44 373 61T435 107T481 176T512 263Q527 321 536 360T551 427T559 475T562 515Q562 545 555 570T531 614T489 643T430 654Q389 654 355 637T293 591T247 522T216 435Q202 377
193 338T177 271T169 223T166 183Q166 153 173 128T197 84T238 55T298 44ZM286 -12Q175 -12 115 55T54 239Q54 282 64 334T94 438T146 540T221 626T319 687T442 710Q553 710 613 643T674 459Q674 416 664 364T634 260T582 158T507 72T409 11T286 -12ZM372 783Q346
783 333 798T320 832Q320 837 320 841T322 851Q327 871 344 885T385 899Q411 899 424 884T437 850Q437 845 437 841T435 831Q430 811 413 797T372 783ZM563 783Q537 783 524 798T511 832Q511 837 511 841T513 851Q518 871 535 885T576 899Q602 899 615 884T628
850Q628 845 628 841T626 831Q621 811 604 797T563 783Z" />
<glyph unicode="&#xd7;" glyph-name="multiply" horiz-adv-x="550" d="M278 257L89 94L52 141L244 307L134 471L186 512L294 349L483 512L520 465L328 299L438 135L386 94L278 257Z" />
<glyph unicode="&#xd8;" glyph-name="Oslash" horiz-adv-x="690" d="M15 -11L95 81Q54 143 54 239Q54 282 64 334T94 438T146 540T221 626T319 687T442 710Q491 710 530 697T599 657L674 743L713 709L633 617Q674 555 674 459Q674 416 664 364T634 260T582 158T507
72T409 11T286 -12Q237 -12 198 1T129 41L54 -45L15 -11ZM430 654Q389 654 355 637T293 591T247 522T216 435Q202 377 193 338T177 271T169 223T166 183Q166 177 166 172T167 161L544 594Q529 622 501 638T430 654ZM298 44Q339 44 373 61T435 107T481 176T512 263Q527
321 536 360T551 427T559 475T562 515Q562 521 562 526T561 537L184 104Q199 76 227 60T298 44Z" />
<glyph unicode="&#xd9;" glyph-name="Ugrave" horiz-adv-x="685" d="M299 -12Q198 -12 142 28T86 160Q86 183 91 212T104 275L197 649H129L142 698H392L379 649H311L210 246Q196 190 196 150Q196 99 224 73T315 47Q401 47 449 98T525 256L623 649H555L567 698H764L752
649H684L585 252Q550 112 482 50T299 -12ZM399 917L494 953L522 765L490 754L399 917Z" />
<glyph unicode="&#xda;" glyph-name="Uacute" horiz-adv-x="685" d="M299 -12Q198 -12 142 28T86 160Q86 183 91 212T104 275L197 649H129L142 698H392L379 649H311L210 246Q196 190 196 150Q196 99 224 73T315 47Q401 47 449 98T525 256L623 649H555L567 698H764L752
649H684L585 252Q550 112 482 50T299 -12ZM456 770L560 953L647 908L487 754L456 770Z" />
<glyph unicode="&#xdb;" glyph-name="Ucircumflex" horiz-adv-x="685" d="M299 -12Q198 -12 142 28T86 160Q86 183 91 212T104 275L197 649H129L142 698H392L379 649H311L210 246Q196 190 196 150Q196 99 224 73T315 47Q401 47 449 98T525 256L623 649H555L567
698H764L752 649H684L585 252Q550 112 482 50T299 -12ZM349 779L501 943H571L650 775L621 760L523 861L375 760L349 779Z" />
<glyph unicode="&#xdc;" glyph-name="Udieresis" horiz-adv-x="685" d="M299 -12Q198 -12 142 28T86 160Q86 183 91 212T104 275L197 649H129L142 698H392L379 649H311L210 246Q196 190 196 150Q196 99 224 73T315 47Q401 47 449 98T525 256L623 649H555L567 698H764L752
649H684L585 252Q550 112 482 50T299 -12ZM410 783Q384 783 371 798T358 832Q358 837 358 841T360 851Q365 871 382 885T423 899Q449 899 462 884T475 850Q475 845 475 841T473 831Q468 811 451 797T410 783ZM601 783Q575 783 562 798T549 832Q549 837 549 841T551
851Q556 871 573 885T614 899Q640 899 653 884T666 850Q666 845 666 841T664 831Q659 811 642 797T601 783Z" />
<glyph unicode="&#xdd;" glyph-name="Yacute" horiz-adv-x="611" d="M116 49H196L253 283L157 649H107L119 698H360L348 649H275L345 354H353L569 649H496L509 698H706L694 649H644L370 294L310 49H390L378 0H104L116 49ZM413 770L517 953L604 908L444 754L413 770Z" />
<glyph unicode="&#xde;" glyph-name="Thorn" horiz-adv-x="589" d="M-14 49H54L204 649H136L148 698H398L386 649H318L291 540H431Q505 540 548 508T592 408Q592 375 581 333T543 252T467 188T345 161H197L168 49H236L224 0H-26L-14 49ZM210 214H330Q379 214 414
244T463 328Q466 342 472 368T479 412Q479 447 459 467T399 487H278L210 214Z" />
<glyph unicode="&#xdf;" glyph-name="germandbls" horiz-adv-x="615" d="M-71 -212Q-122 -212 -147 -192T-173 -140Q-173 -114 -156 -95T-111 -75Q-85 -75 -71 -89T-57 -127Q-57 -156 -88 -175L-82 -183Q-41 -183 -18 -156T19 -75L154 468H65L79 520H167L176 557Q199
654 263 707T429 760Q517 760 558 720T599 613Q599 596 597 581T590 546L577 494H540Q489 494 457 472T424 402Q424 367 444 341T493 280Q514 256 531 228T549 158Q549 118 533 87T488 33T423 0T342 -12Q282 -12 256 8T229 60Q229 84 245 103T290 123Q314 123 328
110T343 73Q343 60 338 47T322 24L327 15Q349 17 370 23T408 42T435 72T446 116Q446 135 441 151T426 181T403 211T375 243Q353 268 337 295T321 362Q321 395 333 421T368 467T419 498T480 513L494 572Q499 591 500 605T502 633Q502 674 482 695T425 716Q370 716
338 680T287 569L136 -35Q115 -121 60 -166T-71 -212Z" />
<glyph unicode="&#xe0;" glyph-name="agrave" horiz-adv-x="564" d="M139 -12Q83 -12 59 27T34 138Q34 200 52 269T103 397T185 494T295 532Q339 532 367 510T406 440H416L467 520H521L405 63L423 55L527 169L557 149L492 66Q457 22 433 5T382 -12Q344 -12 329
8T313 54Q313 67 315 82T321 108L336 168L326 171Q308 132 289 99T248 41T198 2T139 -12ZM181 64Q209 64 239 94T295 168T342 260T371 343L376 363Q388 411 376 441T324 471Q278 471 238 427T172 291Q167 274 163 253T155 209T149 167T146 132Q146 100 153 82T181
64ZM241 747L336 783L364 595L332 584L241 747Z" />
<glyph unicode="&#xe1;" glyph-name="aacute" horiz-adv-x="564" d="M139 -12Q83 -12 59 27T34 138Q34 200 52 269T103 397T185 494T295 532Q339 532 367 510T406 440H416L467 520H521L405 63L423 55L527 169L557 149L492 66Q457 22 433 5T382 -12Q344 -12 329
8T313 54Q313 67 315 82T321 108L336 168L326 171Q308 132 289 99T248 41T198 2T139 -12ZM181 64Q209 64 239 94T295 168T342 260T371 343L376 363Q388 411 376 441T324 471Q278 471 238 427T172 291Q167 274 163 253T155 209T149 167T146 132Q146 100 153 82T181
64ZM294 600L398 783L485 738L325 584L294 600Z" />
<glyph unicode="&#xe2;" glyph-name="acircumflex" horiz-adv-x="564" d="M139 -12Q83 -12 59 27T34 138Q34 200 52 269T103 397T185 494T295 532Q339 532 367 510T406 440H416L467 520H521L405 63L423 55L527 169L557 149L492 66Q457 22 433 5T382 -12Q344 -12
329 8T313 54Q313 67 315 82T321 108L336 168L326 171Q308 132 289 99T248 41T198 2T139 -12ZM181 64Q209 64 239 94T295 168T342 260T371 343L376 363Q388 411 376 441T324 471Q278 471 238 427T172 291Q167 274 163 253T155 209T149 167T146 132Q146 100 153
82T181 64ZM183 611L335 775H405L484 607L455 592L357 693L209 592L183 611Z" />
<glyph unicode="&#xe3;" glyph-name="atilde" horiz-adv-x="564" d="M139 -12Q83 -12 59 27T34 138Q34 200 52 269T103 397T185 494T295 532Q339 532 367 510T406 440H416L467 520H521L405 63L423 55L527 169L557 149L492 66Q457 22 433 5T382 -12Q344 -12 329
8T313 54Q313 67 315 82T321 108L336 168L326 171Q308 132 289 99T248 41T198 2T139 -12ZM181 64Q209 64 239 94T295 168T342 260T371 343L376 363Q388 411 376 441T324 471Q278 471 238 427T172 291Q167 274 163 253T155 209T149 167T146 132Q146 100 153 82T181
64ZM409 612Q386 612 368 620T329 639Q306 651 291 659T258 668Q245 668 233 662T202 636L178 659Q202 689 225 712T281 735Q304 735 322 727T361 708Q384 696 399 688T432 679Q445 679 457 685T488 711L512 688Q488 658 465 635T409 612Z" />
<glyph unicode="&#xe4;" glyph-name="adieresis" horiz-adv-x="564" d="M139 -12Q83 -12 59 27T34 138Q34 200 52 269T103 397T185 494T295 532Q339 532 367 510T406 440H416L467 520H521L405 63L423 55L527 169L557 149L492 66Q457 22 433 5T382 -12Q344 -12
329 8T313 54Q313 67 315 82T321 108L336 168L326 171Q308 132 289 99T248 41T198 2T139 -12ZM181 64Q209 64 239 94T295 168T342 260T371 343L376 363Q388 411 376 441T324 471Q278 471 238 427T172 291Q167 274 163 253T155 209T149 167T146 132Q146 100 153
82T181 64ZM247 613Q221 613 208 628T195 662Q195 667 195 671T197 681Q202 701 219 715T260 729Q286 729 299 714T312 680Q312 675 312 671T310 661Q305 641 288 627T247 613ZM438 613Q412 613 399 628T386 662Q386 667 386 671T388 681Q393 701 410 715T451 729Q477
729 490 714T503 680Q503 675 503 671T501 661Q496 641 479 627T438 613Z" />
<glyph unicode="&#xe5;" glyph-name="aring" horiz-adv-x="564" d="M139 -12Q83 -12 59 27T34 138Q34 200 52 269T103 397T185 494T295 532Q339 532 367 510T406 440H416L467 520H521L405 63L423 55L527 169L557 149L492 66Q457 22 433 5T382 -12Q344 -12 329
8T313 54Q313 67 315 82T321 108L336 168L326 171Q308 132 289 99T248 41T198 2T139 -12ZM181 64Q209 64 239 94T295 168T342 260T371 343L376 363Q388 411 376 441T324 471Q278 471 238 427T172 291Q167 274 163 253T155 209T149 167T146 132Q146 100 153 82T181
64ZM339 611Q365 611 380 626T403 668Q408 689 412 709T416 738Q416 756 406 767T372 779Q346 779 331 764T308 722Q303 701 299 681T295 652Q295 634 305 623T339 611ZM336 571Q286 571 260 600T233 666Q233 699 244 727T274 775T319 807T375 819Q425 819 451
790T478 724Q478 691 467 663T437 615T392 583T336 571Z" />
<glyph unicode="&#xe6;" glyph-name="ae" horiz-adv-x="704" d="M108 -12Q61 -12 34 17T6 91Q6 130 22 163T75 222T168 264T308 285Q310 295 314 311T321 344T328 379T331 407Q331 448 310 467T253 486Q237 486 221 483T190 473L188 465Q196 459 203 448T210 422Q210
393 193 373T143 352Q120 352 106 365T91 406Q91 429 106 451T147 492T208 521T284 532Q330 532 360 512T400 457H409Q434 492 473 512T560 532Q585 532 609 527T653 509T684 477T696 428Q696 402 683 375T638 323T550 282T408 259Q401 228 396 197T391 139Q391
54 458 54Q503 54 543 91T619 198L653 182Q630 134 606 98T553 37T493 1T422 -12Q384 -12 360 -1T322 30T301 73T294 123H284Q258 60 211 24T108 -12ZM153 52Q172 52 193 66T234 102T267 152T289 208L300 253Q213 242 170 215T113 143Q111 134 109 125T107 104Q107
52 153 52ZM416 294Q516 307 558 341T600 429Q600 454 589 470T549 486Q527 486 509 477T475 445T445 385T416 294Z" />
<glyph unicode="&#xe7;" glyph-name="ccedilla" horiz-adv-x="440" d="M150 -209Q114 -209 92 -195T62 -165L86 -140Q104 -166 143 -166Q160 -166 170 -161T187 -147T195 -131T198 -116Q198 -102 189 -93T152 -80L126 -77L155 -11Q94 -5 65 36T36 149Q36 207 52
274T100 398T183 494T303 532Q366 532 401 503T437 426Q437 390 417 364T360 338Q332 338 319 354T306 392Q306 415 324 438T381 463V472Q356 489 315 489Q293 489 274 481T237 452T204 395T174 301Q163 259 155 215T147 139Q147 54 212 54Q257 54 296 91T373 198L407
182Q385 137 363 103T316 44T263 6T199 -11L178 -60L180 -64Q190 -60 199 -59T216 -58Q242 -58 258 -71T274 -109Q274 -132 264 -150T236 -182T196 -202T150 -209Z" />
<glyph unicode="&#xe8;" glyph-name="egrave" horiz-adv-x="460" d="M176 -12Q103 -12 70 30T36 153Q36 191 43 234T64 319T102 399T156 467T226 514T315 532Q341 532 365 527T409 509T440 477T452 428Q452 402 439 375T394 323T305 282T164 259Q156 227 152 196T147
139Q147 54 213 54Q258 54 298 92T375 198L409 182Q385 134 361 98T310 37T249 0T176 -12ZM172 294Q272 307 314 341T356 429Q356 454 345 470T305 486Q283 486 265 477T231 445T201 385T172 294ZM239 747L334 783L362 595L330 584L239 747Z" />
<glyph unicode="&#xe9;" glyph-name="eacute" horiz-adv-x="460" d="M176 -12Q103 -12 70 30T36 153Q36 191 43 234T64 319T102 399T156 467T226 514T315 532Q341 532 365 527T409 509T440 477T452 428Q452 402 439 375T394 323T305 282T164 259Q156 227 152 196T147
139Q147 54 213 54Q258 54 298 92T375 198L409 182Q385 134 361 98T310 37T249 0T176 -12ZM172 294Q272 307 314 341T356 429Q356 454 345 470T305 486Q283 486 265 477T231 445T201 385T172 294ZM292 600L396 783L483 738L323 584L292 600Z" />
<glyph unicode="&#xea;" glyph-name="ecircumflex" horiz-adv-x="460" d="M176 -12Q103 -12 70 30T36 153Q36 191 43 234T64 319T102 399T156 467T226 514T315 532Q341 532 365 527T409 509T440 477T452 428Q452 402 439 375T394 323T305 282T164 259Q156 227
152 196T147 139Q147 54 213 54Q258 54 298 92T375 198L409 182Q385 134 361 98T310 37T249 0T176 -12ZM172 294Q272 307 314 341T356 429Q356 454 345 470T305 486Q283 486 265 477T231 445T201 385T172 294ZM181 611L333 775H403L482 607L453 592L355 693L207
592L181 611Z" />
<glyph unicode="&#xeb;" glyph-name="edieresis" horiz-adv-x="460" d="M176 -12Q103 -12 70 30T36 153Q36 191 43 234T64 319T102 399T156 467T226 514T315 532Q341 532 365 527T409 509T440 477T452 428Q452 402 439 375T394 323T305 282T164 259Q156 227 152
196T147 139Q147 54 213 54Q258 54 298 92T375 198L409 182Q385 134 361 98T310 37T249 0T176 -12ZM172 294Q272 307 314 341T356 429Q356 454 345 470T305 486Q283 486 265 477T231 445T201 385T172 294ZM245 613Q219 613 206 628T193 662Q193 667 193 671T195
681Q200 701 217 715T258 729Q284 729 297 714T310 680Q310 675 310 671T308 661Q303 641 286 627T245 613ZM436 613Q410 613 397 628T384 662Q384 667 384 671T386 681Q391 701 408 715T449 729Q475 729 488 714T501 680Q501 675 501 671T499 661Q494 641 477
627T436 613Z" />
<glyph unicode="&#xec;" glyph-name="igrave" horiz-adv-x="314" d="M124 -12Q84 -12 67 9T49 56Q49 67 52 81T57 106L142 446H56L67 491L271 532L154 63L172 55L276 169L306 149L241 66Q206 19 178 4T124 -12ZM384 747L479 783L507 595L475 584L384 747Z" />
<glyph unicode="&#xed;" glyph-name="iacute" horiz-adv-x="314" d="M124 -12Q84 -12 67 9T49 56Q49 67 52 81T57 106L142 446H56L67 491L271 532L154 63L172 55L276 169L306 149L241 66Q206 19 178 4T124 -12ZM437 600L541 783L628 738L468 584L437 600Z" />
<glyph unicode="&#xee;" glyph-name="icircumflex" horiz-adv-x="314" d="M124 -12Q84 -12 67 9T49 56Q49 67 52 81T57 106L142 446H56L67 491L271 532L154 63L172 55L276 169L306 149L241 66Q206 19 178 4T124 -12ZM326 611L478 775H548L627 607L598 592L500
693L352 592L326 611Z" />
<glyph unicode="&#xef;" glyph-name="idieresis" horiz-adv-x="314" d="M124 -12Q84 -12 67 9T49 56Q49 67 52 81T57 106L142 446H56L67 491L271 532L154 63L172 55L276 169L306 149L241 66Q206 19 178 4T124 -12ZM390 613Q364 613 351 628T338 662Q338 667 338
671T340 681Q345 701 362 715T403 729Q429 729 442 714T455 680Q455 675 455 671T453 661Q448 641 431 627T390 613ZM581 613Q555 613 542 628T529 662Q529 667 529 671T531 681Q536 701 553 715T594 729Q620 729 633 714T646 680Q646 675 646 671T644 661Q639
641 622 627T581 613Z" />
<glyph unicode="&#xf0;" glyph-name="eth" horiz-adv-x="525" d="M200 -12Q119 -12 77 38T35 175Q35 235 53 294T104 400T185 476T290 506Q335 506 361 482T392 414L401 417Q402 471 388 524T350 622L251 561L226 604L323 664Q305 688 285 708T238 748H312Q329
737 346 724T376 696L477 760L503 716L410 657Q452 601 473 537T495 404Q495 317 475 241T416 109T324 21T200 -12ZM206 35Q233 35 254 46T291 78T320 126T340 186Q353 234 360 264T372 314T377 345T379 368Q379 405 363 429T308 453Q281 453 260 442T223 410T194
362T174 302Q161 254 154 224T142 174T137 143T135 120Q135 83 151 59T206 35Z" />
<glyph unicode="&#xf1;" glyph-name="ntilde" horiz-adv-x="586" d="M393 -12Q353 -12 336 9T319 56Q319 67 321 80T327 105L410 407Q413 419 413 429Q413 457 387 457Q363 457 333 432T272 363T216 263T173 141L138 0H30L141 446H55L66 491L262 532L215 345L225
342Q245 379 266 413T311 473T365 516T430 532Q478 532 499 507T520 440Q520 426 518 410T510 377L424 63L442 55L546 169L576 149L511 66Q477 21 450 5T393 -12ZM442 612Q419 612 401 620T362 639Q339 651 324 659T291 668Q278 668 266 662T235 636L211 659Q235
689 258 712T314 735Q337 735 355 727T394 708Q417 696 432 688T465 679Q478 679 490 685T521 711L545 688Q521 658 498 635T442 612Z" />
<glyph unicode="&#xf2;" glyph-name="ograve" horiz-adv-x="519" d="M205 35Q231 35 251 46T288 78T316 126T336 186Q350 241 359 277T373 337T380 375T382 400Q382 437 367 461T314 485Q288 485 268 474T231 442T203 394T183 334Q169 279 160 243T146 183T139
145T137 120Q137 83 152 59T205 35ZM200 -12Q118 -12 77 38T35 175Q35 233 54 296T109 411T198 498T319 532Q401 532 442 482T484 345Q484 287 465 224T410 109T321 22T200 -12ZM246 747L341 783L369 595L337 584L246 747Z" />
<glyph unicode="&#xf3;" glyph-name="oacute" horiz-adv-x="519" d="M205 35Q231 35 251 46T288 78T316 126T336 186Q350 241 359 277T373 337T380 375T382 400Q382 437 367 461T314 485Q288 485 268 474T231 442T203 394T183 334Q169 279 160 243T146 183T139
145T137 120Q137 83 152 59T205 35ZM200 -12Q118 -12 77 38T35 175Q35 233 54 296T109 411T198 498T319 532Q401 532 442 482T484 345Q484 287 465 224T410 109T321 22T200 -12ZM299 600L403 783L490 738L330 584L299 600Z" />
<glyph unicode="&#xf4;" glyph-name="ocircumflex" horiz-adv-x="519" d="M205 35Q231 35 251 46T288 78T316 126T336 186Q350 241 359 277T373 337T380 375T382 400Q382 437 367 461T314 485Q288 485 268 474T231 442T203 394T183 334Q169 279 160 243T146 183T139
145T137 120Q137 83 152 59T205 35ZM200 -12Q118 -12 77 38T35 175Q35 233 54 296T109 411T198 498T319 532Q401 532 442 482T484 345Q484 287 465 224T410 109T321 22T200 -12ZM188 611L340 775H410L489 607L460 592L362 693L214 592L188 611Z" />
<glyph unicode="&#xf5;" glyph-name="otilde" horiz-adv-x="519" d="M205 35Q231 35 251 46T288 78T316 126T336 186Q350 241 359 277T373 337T380 375T382 400Q382 437 367 461T314 485Q288 485 268 474T231 442T203 394T183 334Q169 279 160 243T146 183T139
145T137 120Q137 83 152 59T205 35ZM200 -12Q118 -12 77 38T35 175Q35 233 54 296T109 411T198 498T319 532Q401 532 442 482T484 345Q484 287 465 224T410 109T321 22T200 -12ZM414 612Q391 612 373 620T334 639Q311 651 296 659T263 668Q250 668 238 662T207
636L183 659Q207 689 230 712T286 735Q309 735 327 727T366 708Q389 696 404 688T437 679Q450 679 462 685T493 711L517 688Q493 658 470 635T414 612Z" />
<glyph unicode="&#xf6;" glyph-name="odieresis" horiz-adv-x="519" d="M205 35Q231 35 251 46T288 78T316 126T336 186Q350 241 359 277T373 337T380 375T382 400Q382 437 367 461T314 485Q288 485 268 474T231 442T203 394T183 334Q169 279 160 243T146 183T139
145T137 120Q137 83 152 59T205 35ZM200 -12Q118 -12 77 38T35 175Q35 233 54 296T109 411T198 498T319 532Q401 532 442 482T484 345Q484 287 465 224T410 109T321 22T200 -12ZM252 613Q226 613 213 628T200 662Q200 667 200 671T202 681Q207 701 224 715T265
729Q291 729 304 714T317 680Q317 675 317 671T315 661Q310 641 293 627T252 613ZM443 613Q417 613 404 628T391 662Q391 667 391 671T393 681Q398 701 415 715T456 729Q482 729 495 714T508 680Q508 675 508 671T506 661Q501 641 484 627T443 613Z" />
<glyph unicode="&#xf7;" glyph-name="divide" horiz-adv-x="550" d="M231 57Q203 57 189 72T174 108Q174 113 174 118T176 130Q190 183 248 183Q276 183 290 168T305 132Q305 127 305 122T303 110Q289 57 231 57ZM323 427Q295 427 281 442T266 478Q266 483 266
488T268 500Q282 553 340 553Q368 553 382 538T397 502Q397 497 397 492T395 480Q381 427 323 427ZM79 335H508L493 275H64L79 335Z" />
<glyph unicode="&#xf8;" glyph-name="oslash" horiz-adv-x="522" d="M-24 -7L56 76Q37 117 37 175Q37 233 56 296T111 411T200 498T321 532Q360 532 390 520T440 486L513 561L547 527L467 444Q486 403 486 345Q486 287 467 224T412 109T323 22T202 -12Q163 -12
133 0T83 34L10 -41L-24 -7ZM316 485Q290 485 270 474T233 442T205 394T185 334Q168 271 159 232T145 169L382 423Q378 451 363 468T316 485ZM207 35Q233 35 253 46T290 78T318 126T338 186Q355 249 364 288T378 351L141 97Q145 69 160 52T207 35Z" />
<glyph unicode="&#xf9;" glyph-name="ugrave" horiz-adv-x="585" d="M141 -12Q94 -12 73 13T51 80Q51 95 53 111T61 144L144 446H57L68 491L277 532L161 113Q158 101 158 91Q158 63 184 63Q208 63 238 88T299 157T355 257T398 379L433 520H541L426 63L444 55L548
169L578 149L513 66Q477 18 450 3T399 -12Q361 -12 346 8T330 54Q330 67 333 82T339 108L356 175L346 178Q326 141 305 107T260 46T206 4T141 -12ZM279 747L374 783L402 595L370 584L279 747Z" />
<glyph unicode="&#xfa;" glyph-name="uacute" horiz-adv-x="585" d="M141 -12Q94 -12 73 13T51 80Q51 95 53 111T61 144L144 446H57L68 491L277 532L161 113Q158 101 158 91Q158 63 184 63Q208 63 238 88T299 157T355 257T398 379L433 520H541L426 63L444 55L548
169L578 149L513 66Q477 18 450 3T399 -12Q361 -12 346 8T330 54Q330 67 333 82T339 108L356 175L346 178Q326 141 305 107T260 46T206 4T141 -12ZM332 600L436 783L523 738L363 584L332 600Z" />
<glyph unicode="&#xfb;" glyph-name="ucircumflex" horiz-adv-x="585" d="M141 -12Q94 -12 73 13T51 80Q51 95 53 111T61 144L144 446H57L68 491L277 532L161 113Q158 101 158 91Q158 63 184 63Q208 63 238 88T299 157T355 257T398 379L433 520H541L426 63L444
55L548 169L578 149L513 66Q477 18 450 3T399 -12Q361 -12 346 8T330 54Q330 67 333 82T339 108L356 175L346 178Q326 141 305 107T260 46T206 4T141 -12ZM221 611L373 775H443L522 607L493 592L395 693L247 592L221 611Z" />
<glyph unicode="&#xfc;" glyph-name="udieresis" horiz-adv-x="585" d="M141 -12Q94 -12 73 13T51 80Q51 95 53 111T61 144L144 446H57L68 491L277 532L161 113Q158 101 158 91Q158 63 184 63Q208 63 238 88T299 157T355 257T398 379L433 520H541L426 63L444 55L548
169L578 149L513 66Q477 18 450 3T399 -12Q361 -12 346 8T330 54Q330 67 333 82T339 108L356 175L346 178Q326 141 305 107T260 46T206 4T141 -12ZM285 613Q259 613 246 628T233 662Q233 667 233 671T235 681Q240 701 257 715T298 729Q324 729 337 714T350 680Q350
675 350 671T348 661Q343 641 326 627T285 613ZM476 613Q450 613 437 628T424 662Q424 667 424 671T426 681Q431 701 448 715T489 729Q515 729 528 714T541 680Q541 675 541 671T539 661Q534 641 517 627T476 613Z" />
<glyph unicode="&#xfd;" glyph-name="yacute" horiz-adv-x="478" d="M-3 -212Q-44 -212 -68 -193T-93 -143Q-93 -115 -75 -94T-26 -73Q-1 -73 13 -87T27 -123Q27 -137 21 -150T6 -171L13 -177Q46 -163 76 -130T141 -30L91 472H49L61 520H270L259 472H201L224 115H233L431
472H375L387 520H546L533 472H494L175 -67Q127 -148 82 -180T-3 -212ZM308 600L412 783L499 738L339 584L308 600Z" />
<glyph unicode="&#xfe;" glyph-name="thorn" horiz-adv-x="534" d="M-92 -152H-25L181 674H95L106 719L312 760L198 352L208 349Q226 387 245 420T286 478T335 517T395 532Q451 532 475 493T500 382Q500 320 482 251T431 123T349 26T240 -12Q161 -12 141 61H131L83
-152H173L161 -200H-104L-92 -152ZM210 49Q256 49 296 93T362 229Q366 246 371 267T379 311T385 353T388 388Q388 420 381 438T353 456Q324 456 295 426T239 352T192 260T163 177L158 157Q146 109 158 79T210 49Z" />
<glyph unicode="&#xff;" glyph-name="ydieresis" horiz-adv-x="478" d="M-3 -212Q-44 -212 -68 -193T-93 -143Q-93 -115 -75 -94T-26 -73Q-1 -73 13 -87T27 -123Q27 -137 21 -150T6 -171L13 -177Q46 -163 76 -130T141 -30L91 472H49L61 520H270L259 472H201L224
115H233L431 472H375L387 520H546L533 472H494L175 -67Q127 -148 82 -180T-3 -212ZM261 613Q235 613 222 628T209 662Q209 667 209 671T211 681Q216 701 233 715T274 729Q300 729 313 714T326 680Q326 675 326 671T324 661Q319 641 302 627T261 613ZM452 613Q426
613 413 628T400 662Q400 667 400 671T402 681Q407 701 424 715T465 729Q491 729 504 714T517 680Q517 675 517 671T515 661Q510 641 493 627T452 613Z" />
<glyph unicode="&#x2013;" glyph-name="endash" horiz-adv-x="557" d="M57 333H536L521 274H42L57 333Z" />
<glyph unicode="&#x2014;" glyph-name="emdash" horiz-adv-x="736" d="M57 333H715L700 274H42L57 333Z" />
<glyph unicode="&#x2018;" glyph-name="quoteleft" horiz-adv-x="260" d="M193 480Q161 480 145 498T128 543Q128 558 132 573Q138 597 153 621T187 669T229 713T274 748H336Q297 718 269 686T223 622Q248 621 262 604T277 566Q277 551 272 536Q264 510 243 495T193 480Z" />
<glyph unicode="&#x2019;" glyph-name="quoteright" horiz-adv-x="260" d="M99 480Q138 510 166 542T212 606Q187 607 173 624T158 662Q158 677 163 692Q171 718 192 733T242 748Q274 748 290 730T307 685Q307 670 303 655Q297 631 282 607T248 559T206 515T161
480H99V480Z" />
<glyph unicode="&#x201a;" glyph-name="quotesinglbase" horiz-adv-x="260" d="M-51 -121Q-12 -91 16 -59T62 5Q37 6 23 23T8 61Q8 76 13 91Q21 117 42 132T92 147Q124 147 140 129T157 84Q157 69 153 54Q147 30 132 6T98 -42T56 -86T11 -121H-51V-121Z" />
<glyph unicode="&#x201c;" glyph-name="quotedblleft" horiz-adv-x="471" d="M193 480Q161 480 145 498T128 543Q128 558 132 573Q138 597 153 621T187 669T229 713T274 748H336Q297 718 269 686T223 622Q248 621 262 604T277 566Q277 551 272 536Q264 510 243
495T193 480ZM407 480Q375 480 359 498T342 543Q342 558 346 573Q352 597 367 621T401 669T443 713T488 748H550Q511 718 483 686T437 622Q462 621 476 604T491 566Q491 551 486 536Q478 510 457 495T407 480Z" />
<glyph unicode="&#x201d;" glyph-name="quotedblright" horiz-adv-x="471" d="M99 480Q138 510 166 542T212 606Q187 607 173 624T158 662Q158 677 163 692Q171 718 192 733T242 748Q274 748 290 730T307 685Q307 670 303 655Q297 631 282 607T248 559T206 515T161
480H99V480ZM313 480Q352 510 380 542T426 606Q401 607 387 624T372 662Q372 677 377 692Q385 718 406 733T456 748Q488 748 504 730T521 685Q521 670 517 655Q511 631 496 607T462 559T420 515T375 480H313V480Z" />
<glyph unicode="&#x201e;" glyph-name="quotedblbase" horiz-adv-x="471" d="M-51 -121Q-12 -91 16 -59T62 5Q37 6 23 23T8 61Q8 76 13 91Q21 117 42 132T92 147Q124 147 140 129T157 84Q157 69 153 54Q147 30 132 6T98 -42T56 -86T11 -121H-51V-121ZM163 -121Q202
-91 230 -59T276 5Q251 6 237 23T222 61Q222 76 227 91Q235 117 256 132T306 147Q338 147 354 129T371 84Q371 69 367 54Q361 30 346 6T312 -42T270 -86T225 -121H163V-121Z" />
<glyph unicode="&#x2022;" glyph-name="bullet" horiz-adv-x="382" d="M187 180Q161 180 141 188T107 209T86 241T79 278Q79 299 85 325Q96 370 131 398T221 427Q247 427 267 419T301 398T322 366T329 329Q329 307 323 282Q312 237 277 209T187 180Z" />
<glyph unicode="&#x2039;" glyph-name="guilsinglleft" horiz-adv-x="290" d="M47 259L59 309L275 490L291 454L147 274L205 103L178 74L47 259Z" />
<glyph unicode="&#x203a;" glyph-name="guilsinglright" horiz-adv-x="290" d="M9 110L153 290L95 461L122 490L253 305L241 255L25 74L9 110Z" />
</font>
</defs>
</svg>
