<svg height="112" viewBox="0 0 315.851 112.299" width="315" xmlns="http://www.w3.org/2000/svg"><g fill="#4b4b4d"><path d="m54.839 31.848c1.299-4.834 12.147-10.689 13.802-5.502 1.859 5.827-1.514 10.969-7.359 16.738-11.735 11.584-41.898 7.201-21.584-20.812 11.099-15.305 36.089-17.02 47.344-17.02 11.791 0 20.021 1.826 26.008 4.863-18.13 8.306-32.612 25.056-44.76 50.865-4.466.538-10.362 1.877-17.683 4.02-2.414.716-3.618 1.741-3.618 3.081 0 .894.67 1.339 2.01 1.339.358 0 1.25-.222 2.679-.669 5.092-1.605 9.87-2.634 14.336-3.081-5.005 11.69-9.964 20.567-14.877 26.636-7.685 9.547-16.13 14.32-25.333 14.32-3.129 0-6.389-.757-9.783-2.274-4.11-1.873-6.166-4.148-6.166-6.822 0-1.606 1.335-2.811 4.008-3.614 4.631-1.337 6.749-1.322 7.309-2.831.33-.892-5.706-15.635-5.706-15.635s-7.216 1.011-10.825 4.62c-2.924 2.924-4.141 6.855-4.141 11.319 0 6.43 2.948 11.431 8.838 15 4.909 2.858 10.846 4.287 17.81 4.287 14.463 0 27.231-4.602 38.301-13.806 10.355-8.488 17.989-19.881 22.897-34.181 11.16-1.073 21.07-4.067 29.729-8.981 10.981-6.253 16.473-14.253 16.473-23.994 0-8.578-4.27-15.449-11.386-20.274 3.215-.896 4.972-1.395 6.49-1.842 3.84-1.071 5.76-1.877 5.76-2.413 0-1.071-.716-1.608-2.143-1.608-3.664 0-7.821 1.257-14.161 3.771-5.538-2.95-16.347-7.009-32.865-6.842-43.514.434-58.815 29.482-58.096 40.431.311 4.73 1.836 15.545 16.584 16.186 5.127.222 20.485-1.127 27.936-19.618 2.166-5.373 2.578-16.304-8.134-18.974-5.984-1.491-20.083.635-22.896 11.446-.32 1.225 13.202 1.871 13.202 1.871zm35.424 26.588c3.918-11.521 7.256-20.136 10.019-25.853 5.341-10.894 10.05-17.341 15.751-20.199 3.367 2.591 4.552 5.731 4.552 10.287 0 8.572-2.939 16.363-8.816 23.374-5.878 7.01-13.047 11.14-21.506 12.391zm-34.941-26.458c.84-3.125 6.416-7.07 10.113-7.156 1.446-.033 2.365.53 2.73 1.676 1.567 4.911-.529 9.613-7.234 16.23-6.42 6.337-18.786 7.79-24.504 2.879-3-2.576-6.51-8.995 3.676-23.042 10.608-14.629 33.962-16.813 46.939-16.813 10.969 0 19.402 1.573 25.782 4.809l.018-.9c-17.972 8.233-32.692 24.95-45.004 51.107l.393-.284c-4.48.54-10.457 1.898-17.764 4.036-2.64.783-3.978 1.981-3.978 3.561 0 .687.326 1.839 2.51 1.839.266 0 .848-.072 2.829-.692 5.043-1.59 9.833-2.62 14.237-3.061l-.509-.694c-4.963 11.592-9.945 20.514-14.807 26.518-7.55 9.379-15.942 14.135-24.944 14.135-3.045 0-6.268-.75-9.579-2.231-3.894-1.774-5.87-3.917-5.87-6.366 0-1.352 1.229-2.407 3.652-3.135 1.278-.369 2.346-.63 3.287-.86 2.483-.606 3.85-.94 4.346-2.276.329-.888-2.924-9.19-5.711-15.998l-.147-.36-.385.054c-.302.042-7.424 1.077-11.11 4.763-2.846 2.845-4.288 6.771-4.288 11.672 0 6.586 3.055 11.777 9.079 15.428 4.971 2.894 11.047 4.359 18.069 4.359 14.517 0 27.511-4.684 38.621-13.921 10.379-8.508 18.135-20.083 23.051-34.403l-.425.335c11.178-1.075 21.247-4.118 29.928-9.044 11.099-6.32 16.726-14.539 16.726-24.429 0-8.387-4.013-15.541-11.605-20.688l-.146.896 6.497-1.844c5.65-1.576 6.119-2.268 6.119-2.893 0-.788-.343-2.108-2.643-2.108-3.953 0-8.419 1.456-14.345 3.806l.419.023c-4.978-2.652-15.898-7.074-33.105-6.9-25.785.257-40.483 10.327-48.272 18.728-7.599 8.197-10.659 17.074-10.319 22.235.696 10.588 6.437 16.191 17.062 16.652 3.347.145 20.445-.136 28.421-19.931 1.461-3.626 1.964-9.192-.208-13.45-1.604-3.144-4.386-5.228-8.269-6.196-6.695-1.668-20.667.916-23.501 11.806-.052.201-.01.408.119.583.872 1.185 9.762 1.733 13.544 1.914l.402.019zm-13.201-1.875c2.631-10.112 16.106-12.628 22.291-11.087 3.591.895 6.154 2.806 7.621 5.68 2.029 3.978 1.548 9.206.171 12.622-7.53 18.689-22.915 19.502-27.45 19.306-10.03-.436-15.449-5.724-16.106-15.719-.325-4.947 2.658-13.51 10.055-21.489 7.656-8.258 22.119-18.155 47.548-18.41 16.985-.172 27.731 4.176 32.625 6.783l.205.109.215-.085c5.816-2.306 10.183-3.735 13.977-3.735 1.643 0 1.643.749 1.643 1.108l.023-.104c-.068.107-.651.706-5.418 2.036l-6.49 1.842-1.032.292.885.603c7.306 4.953 11.167 11.821 11.167 19.86 0 9.504-5.457 17.431-16.22 23.56-8.557 4.856-18.493 7.857-29.529 8.918l-.32.031-.105.305c-4.857 14.139-12.508 25.564-22.744 33.954-10.929 9.086-23.708 13.692-37.984 13.692-6.843 0-12.75-1.419-17.559-4.219-5.697-3.452-8.59-8.354-8.59-14.567 0-4.625 1.344-8.314 3.995-10.965 3.447-3.447 10.471-4.47 10.542-4.479l.027-.004.026-.006-.585-.295c2.78 6.79 5.715 14.476 5.682 15.348l.018-.076c-.299.806-1.274 1.074-3.646 1.653-.904.221-2.03.496-3.333.872-2.901.872-4.37 2.25-4.37 4.095 0 2.876 2.173 5.324 6.458 7.277 3.444 1.54 6.804 2.319 9.991 2.319 9.32 0 17.974-4.881 25.722-14.507 4.918-6.075 9.948-15.076 14.947-26.752l.333-.779-.843.084c-4.472.448-9.33 1.492-14.437 3.102-1.862.583-2.389.646-2.529.646-1.51 0-1.51-.588-1.51-.839 0-1.085 1.097-1.96 3.26-2.602 7.252-2.123 13.175-3.469 17.601-4.002l.275-.033.118-.25c12.207-25.937 26.769-42.496 44.517-50.626l.942-.432-.924-.469c-6.522-3.309-15.104-4.917-26.234-4.917-13.167 0-36.88 2.238-47.749 17.226-10.656 14.695-6.778 21.587-3.518 24.388 6.178 5.307 18.986 3.857 25.857-2.926 5.13-5.063 9.587-10.656 7.485-17.246-.502-1.573-1.818-2.416-3.706-2.372-4.201.097-10.09 4.303-11.056 7.896l.507-.37c-5.78-.276-12.148-.921-12.8-1.523.033.03.093.142.058.278zm48.615 28.494c3.895-11.451 7.258-20.13 9.996-25.796 5.552-11.325 10.196-17.298 15.525-19.97l-.529-.05c3.095 2.381 4.357 5.247 4.357 9.891 0 8.411-2.927 16.167-8.7 23.053-5.769 6.88-12.9 10.99-21.196 12.217zm21.416-12.231c5.928-7.071 8.933-15.043 8.933-23.695 0-4.928-1.42-8.123-4.748-10.684l-.249-.191-.28.141c-5.541 2.778-10.319 8.887-15.976 20.426-2.757 5.705-6.135 14.422-10.043 25.912l-.264.775.811-.12c8.545-1.263 15.885-5.491 21.816-12.564z"/><path d="m220.178 74.436c-1.542 1.814-3.818 5.725-6.764 11.623l.947.224v-.134l-.992-.092c-.175.941-.896 2.795-2.141 5.51-1.112 2.373-1.677 4.382-1.677 5.969 0 2.05 1.132 3.179 3.188 3.179 6.079 0 12.2-6.048 18.713-18.489l.34-.649-.729-.08c-4.772-.521-8.061-2.795-10.054-6.954l-.333-.695zm10.389 7.326c-6.236 11.913-12.234 17.953-17.827 17.953-1.513 0-2.188-.672-2.188-2.179 0-1.439.533-3.306 1.584-5.548 1.299-2.833 2.023-4.712 2.217-5.748l-.992-.092v.134l.947.224c2.911-5.826 5.142-9.669 6.631-11.422l-.832-.107c2.125 4.433 5.774 6.961 10.847 7.515zm1.68-17.715c-1.81 0-3.813.842-5.955 2.501-2.18 1.688-3.286 3.476-3.286 5.315 0 1.836.985 3.578 2.929 5.176 1.912 1.576 3.844 2.375 5.744 2.375.235 0 .506-.052.827-.158l.343-.114v-.495l-.5.5c1.104 0 2.006-1.424 2.924-4.618.654-2.382.971-4.209.971-5.592.001-4.041-2.173-4.89-3.997-4.89zm2.998 4.891c0 1.274-.314 3.064-.933 5.322-1.065 3.701-1.821 3.888-1.962 3.888h-.5v.634l.343-.475c-.268.089-.427.107-.513.107-1.661 0-3.38-.722-5.108-2.146-1.702-1.399-2.564-2.881-2.564-4.404 0-1.514.975-3.036 2.898-4.524 1.962-1.521 3.76-2.292 5.342-2.292 1.286-.001 2.997.402 2.997 3.89z"/><path d="m125.617 76.449c-5.388 10.25-14.912 25.627-19.854 34.336 7.069 0 14.528-1.017 15.43-1.918s13.412-22.183 14.398-24.326c4.294-8.128 10.15-18.384 11.905-21.138 1.252-.803 3.286-1.459 4.451-1.459 3.7 0 2.92 5.046 2.92 5.046-.446 4.558-5.027 11.637-9.866 20.433-4.841 8.797-7.261 14.09-7.261 15.875 0 5.537 3.032 8.306 9.1 8.306 11.236 0 21.971-15.306 22.913-17.024-.891 1.508-1.586 6.809-1.586 8.858 0 2.233.735 4.176 2.21 5.827 1.473 1.654 3.334 2.647 5.562 2.479 7.576-.576 19.239-15.82 20.048-16.864-.672 2.474-1.017 4.226-1.017 6.53 0 6.424 3.528 9.635 10.584 9.635 5.09 0 10.85-3.574 17.282-10.723 4.645-5.207 8.664-10.987 12.059-17.343 6.812 0 12.157-4.25 12.607-4.415l-9.385 17.756c-.895 1.968-1.34 3.845-1.34 5.632 0 2.415.893 4.651 2.68 6.707 1.784 2.057 3.883 3.085 6.296 3.085 5.269 0 9.423-2.683 12.461-8.045 0 .818.233 3.233 1.341 4.919 1.701 2.588 4.063 3.126 6.029 3.126 6.431 0 11.118-2.683 14.065-8.045 0 .806.762 3.961 1.777 5.144 1.856 2.161 2.557 2.901 6.396 2.901 7.721 0 19.782-16.525 19.782-20.188 0-.537-.18-1.027-.537-1.476h-.534c-.536.269-1.478 3.085-5.024 6.634-5.339 5.339-4.837 4.538-5.679 4.538-.545 0-.762-2.912.148-4.68 4.466-8.674 19.37-34.972 19.37-35.796 0-.806-12.718 1.243-12.718 1.243-2.288 4.304-8.235 14.543-11.859 21.284-6.724 12.506-11.657 17.984-14.067 17.984-.716 0-2.19-1.496-2.19-4.716 0-1.403 4.508-9.758 8.896-18.348 3.043-5.956 8.528-16.917 7.998-17.448-.661-.659-12.024 1.207-12.024 1.207-11.892 23.05-20.82 39.269-24.482 39.269-.923 0-2.443-1.673-2.443-4.68 0-5.186 17.597-34.474 17.012-35.796-.381-.86-12.535 1.243-12.535 1.243l-7.12 11.479c-.639 1.919-7.342 6.393-13.314 5.588 2.008-5.448 3.011-9.109 3.011-10.986 0-5.626-3.042-8.44-9.125-8.44-7.692 0-15.608 5.086-23.747 15.255-3.811 4.806-7.873 12.076-8.764 13.33-.834.837-3.53 3.606-6.535 6.611-3.898 3.898-6.69 6.589-8.171 6.297-1.876-.293-2.145-3.349-2.145-3.349.087-2.232.815-5.531 2.145-9.913 1.33-4.384 2.638-6.698 2.638-6.931 0 0 6.426-6.237 11.671-11.482 18.587-18.587 29.929-31.264 37.493-45.347 1.949-3.628 3.081-6.92 3.081-10.047 0-3.034-3.183-4.553-7.917-4.553-9.737 0-21.885 8.975-34.824 27.73-9.23 13.379-19.508 38.89-20.346 40.869-.692 1.633-4.186 9.482-4.518 10.394-.168.461-11.818 14.49-16.338 14.49-1.784 0-2.709-1.53-2.367-3.168.11-.524 1.585-3.917 6.241-12.76 4.654-8.843 6.981-15.364 6.981-19.562 0-2.411-.65-4.487-1.95-6.229s-3.116-2.614-5.446-2.614c-4.376 0-8.432.798-8.432.798s4.353-7.497 10.628-18.314l13.774-22.608c-4.555-.088-11.706.099-14.425 2.817-1.94 1.941-16.038 24.812-26.963 43.644m73.2-25.722c11.605-16.863 20.433-25.948 26.38-25.295 4.426.484-5.243 18.513-18.379 33.159-11.312 12.613-20.583 21.727-27.992 28.681 3.213-8.832 10.171-22.27 19.991-36.545zm7.388 60.92c-1.793 0-2.688-.893-2.688-2.679 0-1.519.543-3.955 1.632-6.276 1.27-2.769 7.357-14.713 8.875-16.5 2.055 4.288 6.252 6.698 10.451 7.234-6.36 12.149-12.449 18.221-18.27 18.221zm22.053-25.823c-.964 2.69-2.019 4.235-2.019 4.235-.309.069-7.962-1.04-9.268-6.764-.375-1.644 1.029-3.323 3.092-4.92 2.062-1.598 3.944-2.396 5.648-2.396 2.33 0 3.498 1.465 3.498 4.391.001 1.331-.145 3.204-.951 5.454zm-109.619 1.824c-3.422 6.51-8.537 15.127-13.049 22.73-2.57 4.33-4.997 8.419-6.797 11.592l-.423.747h.858c6.344 0 14.621-.902 15.783-2.064 1.014-1.013 13.582-22.478 14.499-24.47 4.308-8.153 10.176-18.415 11.873-21.079l-.152.152c1.147-.735 3.101-1.38 4.181-1.38.75 0 1.312.23 1.72.705 1.075 1.251.71 3.741.707 3.766-.346 3.526-3.212 8.58-6.841 14.978l-2.969 5.29c-4.928 8.954-7.323 14.225-7.323 16.116 0 5.843 3.23 8.806 9.6 8.806 11.292 0 22.109-15.018 23.351-17.284l-.869-.495c-1.013 1.714-1.655 7.239-1.655 9.113 0 2.352.786 4.424 2.337 6.16 1.69 1.897 3.755 2.812 5.973 2.645 7.118-.542 17.381-13.143 20.356-16.993l.049-.064-.877-.437c-.671 2.469-1.034 4.262-1.034 6.661 0 6.725 3.729 10.135 11.084 10.135 5.213 0 11.152-3.663 17.653-10.888 4.65-5.213 8.73-11.081 12.128-17.442l-.441.265c5.97 0 10.798-3.154 12.384-4.191l.416-.263-.635-.694-9.385 17.756c-.932 2.048-1.398 4.012-1.398 5.865 0 2.529.943 4.896 2.802 7.035 1.875 2.161 4.12 3.257 6.674 3.257 5.438 0 9.777-2.792 12.896-8.298l-.935-.247c0 1.047.297 3.48 1.423 5.193 1.482 2.255 3.591 3.352 6.447 3.352 6.596 0 11.475-2.794 14.504-8.304l-.938-.241c0 .812.767 4.152 1.898 5.469 2.007 2.336 2.83 3.076 6.775 3.076 8.057 0 20.282-16.919 20.282-20.688 0-.648-.218-1.25-.646-1.787l-.149-.188h-.893l-.105.053c-.312.157-.534.529-.976 1.271-.702 1.18-1.877 3.154-4.179 5.457-4.285 4.285-4.672 4.468-4.985 4.421l-.34-.029c.12 0 .205.062.228.092-.248-.335-.392-2.573.365-4.042 2.04-3.961 6.213-11.52 10.249-18.829 7.633-13.824 9.177-16.717 9.177-17.196 0-.172-.074-.331-.21-.446-.598-.509-5.001-.107-13.087 1.196l-.246.04-.116.219c-1.069 2.011-2.98 5.394-5.004 8.976-2.309 4.087-4.926 8.719-6.854 12.306-7.032 13.08-11.736 17.721-13.627 17.721-.299 0-1.69-1.098-1.69-4.216 0-.989 3.11-7.009 6.118-12.831l2.723-5.289c8.77-17.165 8.291-17.644 7.906-18.029-.56-.559-4.751-.199-12.459 1.067l-.248.041-.115.223c-9.734 18.868-20.422 38.998-24.038 38.998-.581 0-1.943-1.422-1.943-4.18 0-2.957 6.404-14.903 11.08-23.625 5.354-9.985 6.179-11.72 5.89-12.373-.175-.396-.539-1.217-13.077.953l-.221.038-.118.191-7.12 11.479-.031.05-.019.056c-.544 1.635-6.969 6.033-12.772 5.25l.402.668c2.047-5.555 3.042-9.205 3.042-11.159 0-5.933-3.238-8.94-9.625-8.94-7.815 0-15.937 5.196-24.137 15.442-2.777 3.503-5.675 8.285-7.406 11.142-.636 1.05-1.139 1.879-1.375 2.211l.054-.063-1.359 1.379-5.175 5.231c-3.007 3.008-6.417 6.417-7.721 6.16-1.462-.229-1.741-2.875-1.743-2.902l.001.064c.084-2.153.778-5.355 2.124-9.788.939-3.095 1.874-5.163 2.322-6.157.266-.587.337-.745.337-.919l-.152.359c.064-.062 6.489-6.299 11.677-11.488 18.439-18.44 29.89-31.147 37.58-45.464 2.143-3.989 3.14-7.256 3.14-10.284 0-3.211-3.068-5.053-8.417-5.053-10.438 0-22.623 9.664-35.236 27.946-5.565 8.067-12.702 22.358-20.096 40.239l-.299.719-1.668 3.816c-1.241 2.822-2.647 6.02-2.859 6.601l.024-.053c-.621 1.055-11.796 14.214-15.893 14.214-.629 0-1.146-.227-1.496-.656-.395-.486-.534-1.182-.382-1.91.078-.373 1.384-3.492 6.194-12.629 4.671-8.875 7.039-15.535 7.039-19.794 0-2.51-.689-4.707-2.05-6.528-1.395-1.868-3.362-2.815-5.846-2.815-3.618 0-6.564.484-8.513.805l.514.744 10.628-18.314c-.006.009 13.769-22.599 13.769-22.599l.453-.743-.87-.017c-7.806-.15-12.643.819-14.788 2.964-2.097 2.098-16.869 26.211-27.042 43.747l.865.502c10.969-18.908 25.039-41.696 26.884-43.542 1.916-1.916 6.646-2.814 14.062-2.671l-.417-.76-13.774 22.608c-.006.009-10.634 18.324-10.634 18.324l-.554.955 1.083-.213c.04-.008 4.062-.789 8.335-.789 2.182 0 3.833.79 5.045 2.414 1.228 1.645 1.851 3.639 1.851 5.929 0 4.096-2.33 10.599-6.924 19.329-4.704 8.934-6.166 12.306-6.288 12.89-.214 1.024-.001 2.024.585 2.745.537.661 1.344 1.025 2.271 1.025 4.704 0 16.508-13.994 16.808-14.819.201-.55 1.661-3.872 2.835-6.541l1.674-3.829.302-.727c7.368-17.818 14.469-32.043 19.996-40.053 12.24-17.743 24.462-27.515 34.413-27.515 2.23 0 7.417.395 7.417 4.053 0 2.856-.96 5.973-3.021 9.811-7.632 14.208-19.034 26.857-37.406 45.23-5.183 5.183-11.602 11.415-11.666 11.477l-.152.147v.211l.01-.088c-.02.069-.141.337-.258.596-.458 1.013-1.41 3.121-2.368 6.278-1.37 4.515-2.079 7.799-2.166 10.039l-.001.032.003.032c.012.141.328 3.449 2.565 3.799 1.628.321 3.984-1.819 8.602-6.438l5.181-5.238 1.354-1.374.028-.029.025-.035c.257-.362.742-1.163 1.415-2.272 1.719-2.837 4.596-7.585 7.333-11.037 8-9.996 15.858-15.065 23.355-15.065 5.803 0 8.625 2.597 8.625 7.94 0 1.809-1.003 5.447-2.98 10.813l-.216.585.618.083c6.329.853 13.155-3.823 13.855-5.925l-.05.105 7.12-11.479-.339.229c5.382-.932 11.391-1.701 12.13-1.375-.023-.011-.094-.059-.138-.158l-.028-.117c-.028.792-2.977 6.293-5.828 11.613-4.989 9.307-11.199 20.89-11.199 24.098 0 3.335 1.74 5.18 2.943 5.18 3.806 0 11.697-13.896 24.926-39.539l-.363.264c5.179-.85 10.96-1.565 11.671-1.288l-.081-.058c-.089-.089-.11-.188-.11-.219.015.681-2.074 5.527-7.979 17.085l-2.72 5.285c-3.979 7.701-6.23 12.115-6.23 13.29 0 3.358 1.591 5.216 2.69 5.216 2.985 0 8.273-6.651 14.508-18.248 1.924-3.579 4.538-8.206 6.844-12.288 2.027-3.588 3.941-6.977 5.017-8.999l-.362.259c5.5-.886 11.622-1.644 12.349-1.377-.073-.027-.21-.16-.21-.359l.009-.081c-.203.751-4.909 9.274-9.062 16.793-4.039 7.316-8.216 14.88-10.262 18.854-.857 1.665-.815 4.226-.334 5.016.208.342.484.393.63.393l.193.019c.799.119.989.147 5.839-4.703 2.39-2.391 3.604-4.433 4.331-5.652.229-.385.488-.822.591-.904l-.027.017-.224.053h.534l-.391-.188c.288.361.428.742.428 1.164 0 3.514-11.889 19.688-19.282 19.688-3.675 0-4.265-.687-6.018-2.727-.911-1.061-1.656-4.11-1.656-4.818v-1.948l-.938 1.707c-2.879 5.239-7.337 7.786-13.627 7.786-2.493 0-4.328-.949-5.611-2.9-1.032-1.572-1.258-3.886-1.258-4.645v-1.897l-.935 1.65c-2.929 5.17-6.975 7.792-12.026 7.792-2.282 0-4.218-.953-5.918-2.913-1.697-1.952-2.558-4.098-2.558-6.379 0-1.709.436-3.535 1.295-5.425-.013.026 9.372-17.729 9.372-17.729l.609-1.152-1.223.449c-.113.042-.234.119-.597.356-1.525.997-6.165 4.028-11.837 4.028h-.3l-.141.265c-3.361 6.291-7.395 12.093-11.991 17.245-6.302 7.004-11.991 10.556-16.909 10.556-6.786 0-10.084-2.988-10.084-9.135 0-2.287.351-4.014.999-6.399l-.877-.437-.05.064c-2.073 2.682-12.762 16.084-19.641 16.607-1.921.145-3.654-.633-5.15-2.313-1.383-1.548-2.083-3.396-2.083-5.495 0-1.988.702-7.226 1.516-8.604l-.869-.495c-1.205 2.198-11.664 16.765-22.474 16.765-5.787 0-8.6-2.553-8.6-7.806 0-1.165 1.249-4.823 7.199-15.634l2.962-5.278c3.688-6.501 6.6-11.637 6.963-15.347.015-.093.436-2.937-.938-4.54-.6-.701-1.435-1.056-2.48-1.056-1.28 0-3.397.69-4.721 1.539l-.092.06-.06.093c-1.705 2.677-7.594 12.975-11.925 21.173-1.087 2.359-13.515 23.377-14.311 24.206-.699.699-7.731 1.771-15.075 1.771l.435.747c1.795-3.164 4.22-7.249 6.787-11.575 4.519-7.613 9.64-16.242 13.074-22.775l-.894-.469zm80.59-36.638c12.024-17.472 20.5-25.676 25.914-25.081.277.03.438.154.538.415 1.237 3.234-7.571 18.909-19.234 31.913-12.224 13.629-21.813 22.879-27.962 28.65l.812.536c3.604-9.909 11.056-23.529 19.932-36.433zm-20.061 36.627c6.163-5.785 15.773-15.054 28.022-28.712 11.33-12.632 20.95-28.947 19.423-32.938-.235-.616-.707-.979-1.362-1.051-5.894-.647-14.424 7.458-26.846 25.509-8.921 12.97-16.417 26.673-20.049 36.657zm27.037 23.51c-1.513 0-2.188-.672-2.188-2.179 0-1.239.415-3.571 1.584-6.064 1.346-2.936 7.36-14.69 8.804-16.389l-.832-.107c1.959 4.088 6.011 6.897 10.838 7.514l-.379-.728c-6.236 11.913-12.234 17.953-17.827 17.953zm18.333-18.217c-4.489-.573-8.251-3.173-10.063-6.955l-.333-.695-.499.587c-1.591 1.873-7.761 14.025-8.949 16.615-1.018 2.171-1.677 4.718-1.677 6.485 0 2.05 1.132 3.179 3.188 3.179 6.079 0 12.2-6.048 18.713-18.489l.333-.637zm3.25-7.275c-.927 2.588-1.951 4.107-1.961 4.122l.304-.206.066-.009c-.073.001-7.489-.906-8.737-6.378-.281-1.235.67-2.679 2.911-4.413 1.962-1.521 3.76-2.292 5.342-2.292 1.287 0 2.998.403 2.998 3.891-.001 1.823-.303 3.552-.923 5.285zm1.922-5.285c0-4.042-2.174-4.891-3.998-4.891-1.81 0-3.813.842-5.955 2.501-2.58 1.997-3.65 3.771-3.273 5.426 1.377 6.038 9.392 7.246 9.864 7.14l.192-.043.111-.163c.044-.065 1.103-1.629 2.077-4.349.661-1.842.982-3.682.982-5.621z"/><g><path d="m126.259 76.041c-1.17-.514-4.625 2.015-9.403 7.428-2.725 3.091-6.029 6.039-8.913 8.912-9.585 9.334-27.425 19.815-28.964 19.418-1.145-.296 2.128-9.754 2.128-9.754 5.672-1.654 10.069-3.484 13.212-5.492 4.008-2.618 8.291-4.971 13.437-10.029 9.584-9.415 23.611-21.688 25.745-23.82"/><path d="m126.46 75.583c-2.153-.945-7.696 4.969-9.979 7.555-1.84 2.088-3.966 4.128-6.022 6.102-.955.917-1.943 1.865-2.868 2.787-9.463 9.215-26.866 19.377-28.513 19.283l.027.005c.096.025.153.091.166.119-.308-.687.96-5.323 2.311-9.225l-.333.316c5.679-1.656 10.168-3.524 13.341-5.551l2.061-1.32c3.513-2.229 7.145-4.534 11.458-8.774 6.296-6.185 14.551-13.64 20.013-18.573 2.9-2.619 4.996-4.511 5.735-5.25l-.707-.707c-.721.721-2.809 2.606-5.698 5.215-5.469 4.939-13.733 12.402-20.044 18.602-4.237 4.165-7.823 6.441-11.292 8.643l-2.067 1.325c-3.089 1.973-7.491 3.801-13.079 5.431l-.248.072-.084.244c-.899 2.598-2.917 8.774-2.248 10.022.104.194.27.329.467.379 1.931.499 20.148-10.497 29.438-19.543.923-.919 1.907-1.864 2.859-2.778 2.071-1.988 4.213-4.043 6.08-6.162 5.18-5.868 8.164-7.592 8.827-7.3z"/></g></g></svg>